<?xml version="1.0" encoding="utf-8" standalone="no"?>
<!DOCTYPE svg PUBLIC "-//W3C//DTD SVG 1.1//EN"
  "http://www.w3.org/Graphics/SVG/1.1/DTD/svg11.dtd">
<svg xmlns:xlink="http://www.w3.org/1999/xlink" width="656.325187pt" height="313.16pt" viewBox="0 0 656.325187 313.16" xmlns="http://www.w3.org/2000/svg" version="1.1">
 <metadata>
  <rdf:RDF xmlns:dc="http://purl.org/dc/elements/1.1/" xmlns:cc="http://creativecommons.org/ns#" xmlns:rdf="http://www.w3.org/1999/02/22-rdf-syntax-ns#">
   <cc:Work>
    <dc:type rdf:resource="http://purl.org/dc/dcmitype/StillImage"/>
    <dc:date>2026-07-14T11:33:17.756928</dc:date>
    <dc:format>image/svg+xml</dc:format>
    <dc:creator>
     <cc:Agent>
      <dc:title>Matplotlib v3.11.0, https://matplotlib.org/</dc:title>
     </cc:Agent>
    </dc:creator>
   </cc:Work>
  </rdf:RDF>
 </metadata>
 <defs>
  <style type="text/css">*{stroke-linejoin: round; stroke-linecap: butt}</style>
 </defs>
 <g id="figure_1">
  <g id="patch_1">
   <path d="M 0 313.16 
L 656.325187 313.16 
L 656.325187 0 
L 0 0 
L 0 313.16 
z
" style="fill: none"/>
  </g>
  <g id="axes_1">
   <g id="patch_2">
    <path d="M 40.248 167.98 
C 45.021656 167.98 49.600438 166.083406 52.975922 162.707922 
C 56.351406 159.332438 58.248 154.753656 58.248 149.98 
C 58.248 145.206344 56.351406 140.627562 52.975922 137.252078 
C 49.600438 133.876594 45.021656 131.98 40.248 131.98 
C 35.474344 131.98 30.895562 133.876594 27.520078 137.252078 
C 24.144594 140.627562 22.248 145.206344 22.248 149.98 
C 22.248 154.753656 24.144594 159.332438 27.520078 162.707922 
C 30.895562 166.083406 35.474344 167.98 40.248 167.98 
L 40.248 167.98 
z
" clip-path="url(#p5c4821da04)" style="fill: none; stroke: #000000; stroke-width: 1.8; stroke-linejoin: miter"/>
   </g>
   <g id="line2d_1">
    <path d="M 40.248 203.98 
L 40.248 167.98 
L 40.248 167.98 
M 40.248 131.98 
L 40.248 131.98 
L 40.248 95.98 
" clip-path="url(#p5c4821da04)" style="fill: none; stroke: #000000; stroke-width: 1.8; stroke-linecap: round"/>
   </g>
   <g id="line2d_2">
    <path d="M 49.248 149.98 
L 48.498 148.116503 
L 47.748 146.38 
L 46.998 144.888831 
L 46.248 143.744617 
L 45.498 143.025334 
L 44.748 142.78 
L 43.998 143.025334 
L 43.248 143.744617 
L 42.498 144.888831 
L 41.748 146.38 
L 40.998 148.116503 
L 40.248 149.98 
L 39.498 151.843497 
L 38.748 153.58 
L 37.998 155.071169 
L 37.248 156.215383 
L 36.498 156.934666 
L 35.748 157.18 
L 34.998 156.934666 
L 34.248 156.215383 
L 33.498 155.071169 
L 32.748 153.58 
L 31.998 151.843497 
L 31.248 149.98 
" clip-path="url(#p5c4821da04)" style="fill: none; stroke: #000000; stroke-width: 1.8; stroke-linecap: round"/>
   </g>
   <g id="line2d_3">
    <path d="M 40.248 203.98 
L 40.248 218.38 
L 31.248 218.38 
L 49.248 218.38 
M 33.948 222.7 
L 46.548 222.7 
M 38.448 227.02 
L 42.048 227.02 
" clip-path="url(#p5c4821da04)" style="fill: none; stroke: #000000; stroke-width: 1.8; stroke-linecap: round"/>
   </g>
   <g id="line2d_4">
    <path d="M 40.248 95.98 
L 58.248 95.98 
L 76.248 95.98 
" clip-path="url(#p5c4821da04)" style="fill: none; stroke: #000000; stroke-width: 1.8; stroke-linecap: round"/>
   </g>
   <g id="line2d_5">
    <path d="M 76.248 95.98 
L 127.008 95.98 
M 127.008 86.98 
L 127.008 104.98 
M 133.488 86.98 
L 133.488 104.98 
M 133.488 95.98 
L 184.248 95.98 
" clip-path="url(#p5c4821da04)" style="fill: none; stroke: #000000; stroke-width: 1.8; stroke-linecap: round"/>
   </g>
   <g id="line2d_6">
    <path d="M 184.248 95.98 
L 202.248 95.98 
L 220.248 95.98 
" clip-path="url(#p5c4821da04)" style="fill: none; stroke: #000000; stroke-width: 1.8; stroke-linecap: round"/>
   </g>
   <g id="line2d_7">
    <path d="M 328.248 128.38 
L 328.248 83.38 
L 406.190286 128.38 
L 328.248 173.38 
L 328.248 128.38 
M 406.190286 128.38 
" clip-path="url(#p5c4821da04)" style="fill: none; stroke: #000000; stroke-width: 1.8; stroke-linecap: round"/>
   </g>
   <g id="line2d_8">
    <path d="M 334.390786 105.88 
L 341.590786 105.88 
" clip-path="url(#p5c4821da04)" style="fill: none; stroke: #000000; stroke-width: 1.8; stroke-linecap: round"/>
   </g>
   <g id="line2d_9">
    <path d="M 334.390786 150.88 
L 341.590786 150.88 
" clip-path="url(#p5c4821da04)" style="fill: none; stroke: #000000; stroke-width: 1.8; stroke-linecap: round"/>
   </g>
   <g id="line2d_10">
    <path d="M 337.990786 154.48 
L 337.990786 147.28 
" clip-path="url(#p5c4821da04)" style="fill: none; stroke: #000000; stroke-width: 1.8; stroke-linecap: round"/>
   </g>
   <g id="line2d_11">
    <path d="M 220.248 95.98 
L 328.248 150.88 
" clip-path="url(#p5c4821da04)" style="fill: none; stroke: #000000; stroke-width: 1.8; stroke-linecap: round"/>
   </g>
   <g id="line2d_12">
    <path d="M 406.190286 128.38 
L 436.790286 128.38 
L 467.390286 128.38 
" clip-path="url(#p5c4821da04)" style="fill: none; stroke: #000000; stroke-width: 1.8; stroke-linecap: round"/>
   </g>
   <g id="line2d_13">
    <path d="M 467.390286 128.38 
L 481.790286 128.38 
L 496.190286 128.38 
" clip-path="url(#p5c4821da04)" style="fill: none; stroke: #000000; stroke-width: 1.8; stroke-linecap: round"/>
   </g>
   <g id="line2d_14">
    <path d="M 467.390286 128.38 
L 467.390286 101.38 
L 467.390286 74.38 
" clip-path="url(#p5c4821da04)" style="fill: none; stroke: #000000; stroke-width: 1.8; stroke-linecap: round"/>
   </g>
   <g id="line2d_15">
    <path d="M 467.390286 74.38 
L 431.390286 74.38 
L 428.390286 83.38 
L 422.390286 65.38 
L 416.390286 83.38 
L 410.390286 65.38 
L 404.390286 83.38 
L 398.390286 65.38 
L 395.390286 74.38 
L 359.390286 74.38 
" clip-path="url(#p5c4821da04)" style="fill: none; stroke: #000000; stroke-width: 1.8; stroke-linecap: round"/>
   </g>
   <g id="line2d_16">
    <path d="M 359.390286 74.38 
L 328.248 105.88 
" clip-path="url(#p5c4821da04)" style="fill: none; stroke: #000000; stroke-width: 1.8; stroke-linecap: round"/>
   </g>
   <g id="line2d_17">
    <path d="M 76.248 250.78 
L 222.048 250.78 
L 367.848 250.78 
" clip-path="url(#p5c4821da04)" style="fill: none; stroke: #2166ac; stroke-width: 1.8; stroke-linecap: round"/>
   </g>
   <g id="line2d_18">
    <path d="M 220.248 95.98 
L 220.248 155.38 
L 229.248 158.38 
L 211.248 164.38 
L 229.248 170.38 
L 211.248 176.38 
L 229.248 182.38 
L 211.248 188.38 
L 220.248 191.38 
L 220.248 250.78 
" clip-path="url(#p5c4821da04)" style="fill: none; stroke: #000000; stroke-width: 1.8; stroke-linecap: round"/>
   </g>
   <g id="line2d_19">
    <path d="M 328.248 105.88 
L 328.248 160.33 
L 337.248 163.33 
L 319.248 169.33 
L 337.248 175.33 
L 319.248 181.33 
L 337.248 187.33 
L 319.248 193.33 
L 328.248 196.33 
L 328.248 250.78 
" clip-path="url(#p5c4821da04)" style="fill: none; stroke: #000000; stroke-width: 1.8; stroke-linecap: round"/>
   </g>
   <g id="line2d_20">
    <path d="M 436.248 191.38 
L 477.648 191.38 
L 519.048 191.38 
" clip-path="url(#p5c4821da04)" style="fill: none; stroke: #000000; stroke-width: 1.8; stroke-linecap: round"/>
   </g>
   <g id="line2d_21">
    <path d="M 465.048 191.38 
L 465.048 206.14 
M 474.048 206.14 
L 456.048 206.14 
M 474.048 212.62 
L 456.048 212.62 
M 465.048 212.62 
L 465.048 227.38 
" clip-path="url(#p5c4821da04)" style="fill: none; stroke: #000000; stroke-width: 1.8; stroke-linecap: round"/>
   </g>
   <g id="line2d_22">
    <path d="M 465.048 227.38 
L 465.048 241.78 
L 456.048 241.78 
L 474.048 241.78 
M 458.748 246.1 
L 471.348 246.1 
M 463.248 250.42 
L 466.848 250.42 
" clip-path="url(#p5c4821da04)" style="fill: none; stroke: #000000; stroke-width: 1.8; stroke-linecap: round"/>
   </g>
   <g id="line2d_23">
    <path d="M 501.048 191.38 
L 501.048 206.14 
M 510.048 206.14 
L 492.048 206.14 
M 510.048 212.62 
L 492.048 212.62 
M 501.048 212.62 
L 501.048 227.38 
" clip-path="url(#p5c4821da04)" style="fill: none; stroke: #000000; stroke-width: 1.8; stroke-linecap: round"/>
   </g>
   <g id="line2d_24">
    <path d="M 501.048 227.38 
L 501.048 241.78 
L 492.048 241.78 
L 510.048 241.78 
M 494.748 246.1 
L 507.348 246.1 
M 499.248 250.42 
L 502.848 250.42 
" clip-path="url(#p5c4821da04)" style="fill: none; stroke: #000000; stroke-width: 1.8; stroke-linecap: round"/>
   </g>
   <g id="text_1">
    <!-- PocketLab — AD9833 AC-Coupled OP484 Amplifier -->
    <g transform="translate(73.522297 17.870938) scale(0.17 -0.17)">
     <defs>
      <path id="DejaVuSans-33" d="M 1259 4147 
L 1259 2394 
L 2053 2394 
Q 2494 2394 2734 2622 
Q 2975 2850 2975 3272 
Q 2975 3691 2734 3919 
Q 2494 4147 2053 4147 
L 1259 4147 
z
M 628 4666 
L 2053 4666 
Q 2838 4666 3239 4311 
Q 3641 3956 3641 3272 
Q 3641 2581 3239 2228 
Q 2838 1875 2053 1875 
L 1259 1875 
L 1259 0 
L 628 0 
L 628 4666 
z
" transform="scale(0.015625)"/>
      <path id="DejaVuSans-52" d="M 1959 3097 
Q 1497 3097 1228 2736 
Q 959 2375 959 1747 
Q 959 1119 1226 758 
Q 1494 397 1959 397 
Q 2419 397 2687 759 
Q 2956 1122 2956 1747 
Q 2956 2369 2687 2733 
Q 2419 3097 1959 3097 
z
M 1959 3584 
Q 2709 3584 3137 3096 
Q 3566 2609 3566 1747 
Q 3566 888 3137 398 
Q 2709 -91 1959 -91 
Q 1206 -91 779 398 
Q 353 888 353 1747 
Q 353 2609 779 3096 
Q 1206 3584 1959 3584 
z
" transform="scale(0.015625)"/>
      <path id="DejaVuSans-46" d="M 3122 3366 
L 3122 2828 
Q 2878 2963 2633 3030 
Q 2388 3097 2138 3097 
Q 1578 3097 1268 2742 
Q 959 2388 959 1747 
Q 959 1106 1268 751 
Q 1578 397 2138 397 
Q 2388 397 2633 464 
Q 2878 531 3122 666 
L 3122 134 
Q 2881 22 2623 -34 
Q 2366 -91 2075 -91 
Q 1284 -91 818 406 
Q 353 903 353 1747 
Q 353 2603 823 3093 
Q 1294 3584 2113 3584 
Q 2378 3584 2631 3529 
Q 2884 3475 3122 3366 
z
" transform="scale(0.015625)"/>
      <path id="DejaVuSans-4e" d="M 581 4863 
L 1159 4863 
L 1159 1991 
L 2875 3500 
L 3609 3500 
L 1753 1863 
L 3688 0 
L 2938 0 
L 1159 1709 
L 1159 0 
L 581 0 
L 581 4863 
z
" transform="scale(0.015625)"/>
      <path id="DejaVuSans-48" d="M 3597 1894 
L 3597 1613 
L 953 1613 
Q 991 1019 1311 708 
Q 1631 397 2203 397 
Q 2534 397 2845 478 
Q 3156 559 3463 722 
L 3463 178 
Q 3153 47 2828 -22 
Q 2503 -91 2169 -91 
Q 1331 -91 842 396 
Q 353 884 353 1716 
Q 353 2575 817 3079 
Q 1281 3584 2069 3584 
Q 2775 3584 3186 3129 
Q 3597 2675 3597 1894 
z
M 3022 2063 
Q 3016 2534 2758 2815 
Q 2500 3097 2075 3097 
Q 1594 3097 1305 2825 
Q 1016 2553 972 2059 
L 3022 2063 
z
" transform="scale(0.015625)"/>
      <path id="DejaVuSans-57" d="M 1172 4494 
L 1172 3500 
L 2356 3500 
L 2356 3053 
L 1172 3053 
L 1172 1153 
Q 1172 725 1289 603 
Q 1406 481 1766 481 
L 2356 481 
L 2356 0 
L 1766 0 
Q 1100 0 847 248 
Q 594 497 594 1153 
L 594 3053 
L 172 3053 
L 172 3500 
L 594 3500 
L 594 4494 
L 1172 4494 
z
" transform="scale(0.015625)"/>
      <path id="DejaVuSans-2f" d="M 628 4666 
L 1259 4666 
L 1259 531 
L 3531 531 
L 3531 0 
L 628 0 
L 628 4666 
z
" transform="scale(0.015625)"/>
      <path id="DejaVuSans-44" d="M 2194 1759 
Q 1497 1759 1228 1600 
Q 959 1441 959 1056 
Q 959 750 1161 570 
Q 1363 391 1709 391 
Q 2188 391 2477 730 
Q 2766 1069 2766 1631 
L 2766 1759 
L 2194 1759 
z
M 3341 1997 
L 3341 0 
L 2766 0 
L 2766 531 
Q 2569 213 2275 61 
Q 1981 -91 1556 -91 
Q 1019 -91 701 211 
Q 384 513 384 1019 
Q 384 1609 779 1909 
Q 1175 2209 1959 2209 
L 2766 2209 
L 2766 2266 
Q 2766 2663 2505 2880 
Q 2244 3097 1772 3097 
Q 1472 3097 1187 3025 
Q 903 2953 641 2809 
L 641 3341 
Q 956 3463 1253 3523 
Q 1550 3584 1831 3584 
Q 2591 3584 2966 3190 
Q 3341 2797 3341 1997 
z
" transform="scale(0.015625)"/>
      <path id="DejaVuSans-45" d="M 3116 1747 
Q 3116 2381 2855 2742 
Q 2594 3103 2138 3103 
Q 1681 3103 1420 2742 
Q 1159 2381 1159 1747 
Q 1159 1113 1420 752 
Q 1681 391 2138 391 
Q 2594 391 2855 752 
Q 3116 1113 3116 1747 
z
M 1159 2969 
Q 1341 3281 1617 3432 
Q 1894 3584 2278 3584 
Q 2916 3584 3314 3078 
Q 3713 2572 3713 1747 
Q 3713 922 3314 415 
Q 2916 -91 2278 -91 
Q 1894 -91 1617 61 
Q 1341 213 1159 525 
L 1159 0 
L 581 0 
L 581 4863 
L 1159 4863 
L 1159 2969 
z
" transform="scale(0.015625)"/>
      <path id="DejaVuSans-3" transform="scale(0.015625)"/>
      <path id="DejaVuSans-af6" d="M 313 1978 
L 6088 1978 
L 6088 1528 
L 313 1528 
L 313 1978 
z
" transform="scale(0.015625)"/>
      <path id="DejaVuSans-24" d="M 2188 4044 
L 1331 1722 
L 3047 1722 
L 2188 4044 
z
M 1831 4666 
L 2547 4666 
L 4325 0 
L 3669 0 
L 3244 1197 
L 1141 1197 
L 716 0 
L 50 0 
L 1831 4666 
z
" transform="scale(0.015625)"/>
      <path id="DejaVuSans-27" d="M 1259 4147 
L 1259 519 
L 2022 519 
Q 2988 519 3436 956 
Q 3884 1394 3884 2338 
Q 3884 3275 3436 3711 
Q 2988 4147 2022 4147 
L 1259 4147 
z
M 628 4666 
L 1925 4666 
Q 3281 4666 3915 4102 
Q 4550 3538 4550 2338 
Q 4550 1131 3912 565 
Q 3275 0 1925 0 
L 628 0 
L 628 4666 
z
" transform="scale(0.015625)"/>
      <path id="DejaVuSans-1c" d="M 703 97 
L 703 672 
Q 941 559 1184 500 
Q 1428 441 1663 441 
Q 2288 441 2617 861 
Q 2947 1281 2994 2138 
Q 2813 1869 2534 1725 
Q 2256 1581 1919 1581 
Q 1219 1581 811 2004 
Q 403 2428 403 3163 
Q 403 3881 828 4315 
Q 1253 4750 1959 4750 
Q 2769 4750 3195 4129 
Q 3622 3509 3622 2328 
Q 3622 1225 3098 567 
Q 2575 -91 1691 -91 
Q 1453 -91 1209 -44 
Q 966 3 703 97 
z
M 1959 2075 
Q 2384 2075 2632 2365 
Q 2881 2656 2881 3163 
Q 2881 3666 2632 3958 
Q 2384 4250 1959 4250 
Q 1534 4250 1286 3958 
Q 1038 3666 1038 3163 
Q 1038 2656 1286 2365 
Q 1534 2075 1959 2075 
z
" transform="scale(0.015625)"/>
      <path id="DejaVuSans-1b" d="M 2034 2216 
Q 1584 2216 1326 1975 
Q 1069 1734 1069 1313 
Q 1069 891 1326 650 
Q 1584 409 2034 409 
Q 2484 409 2743 651 
Q 3003 894 3003 1313 
Q 3003 1734 2745 1975 
Q 2488 2216 2034 2216 
z
M 1403 2484 
Q 997 2584 770 2862 
Q 544 3141 544 3541 
Q 544 4100 942 4425 
Q 1341 4750 2034 4750 
Q 2731 4750 3128 4425 
Q 3525 4100 3525 3541 
Q 3525 3141 3298 2862 
Q 3072 2584 2669 2484 
Q 3125 2378 3379 2068 
Q 3634 1759 3634 1313 
Q 3634 634 3220 271 
Q 2806 -91 2034 -91 
Q 1263 -91 848 271 
Q 434 634 434 1313 
Q 434 1759 690 2068 
Q 947 2378 1403 2484 
z
M 1172 3481 
Q 1172 3119 1398 2916 
Q 1625 2713 2034 2713 
Q 2441 2713 2670 2916 
Q 2900 3119 2900 3481 
Q 2900 3844 2670 4047 
Q 2441 4250 2034 4250 
Q 1625 4250 1398 4047 
Q 1172 3844 1172 3481 
z
" transform="scale(0.015625)"/>
      <path id="DejaVuSans-16" d="M 2597 2516 
Q 3050 2419 3304 2112 
Q 3559 1806 3559 1356 
Q 3559 666 3084 287 
Q 2609 -91 1734 -91 
Q 1441 -91 1130 -33 
Q 819 25 488 141 
L 488 750 
Q 750 597 1062 519 
Q 1375 441 1716 441 
Q 2309 441 2620 675 
Q 2931 909 2931 1356 
Q 2931 1769 2642 2001 
Q 2353 2234 1838 2234 
L 1294 2234 
L 1294 2753 
L 1863 2753 
Q 2328 2753 2575 2939 
Q 2822 3125 2822 3475 
Q 2822 3834 2567 4026 
Q 2313 4219 1838 4219 
Q 1578 4219 1281 4162 
Q 984 4106 628 3988 
L 628 4550 
Q 988 4650 1302 4700 
Q 1616 4750 1894 4750 
Q 2613 4750 3031 4423 
Q 3450 4097 3450 3541 
Q 3450 3153 3228 2886 
Q 3006 2619 2597 2516 
z
" transform="scale(0.015625)"/>
      <path id="DejaVuSans-26" d="M 4122 4306 
L 4122 3641 
Q 3803 3938 3442 4084 
Q 3081 4231 2675 4231 
Q 1875 4231 1450 3742 
Q 1025 3253 1025 2328 
Q 1025 1406 1450 917 
Q 1875 428 2675 428 
Q 3081 428 3442 575 
Q 3803 722 4122 1019 
L 4122 359 
Q 3791 134 3420 21 
Q 3050 -91 2638 -91 
Q 1578 -91 968 557 
Q 359 1206 359 2328 
Q 359 3453 968 4101 
Q 1578 4750 2638 4750 
Q 3056 4750 3426 4639 
Q 3797 4528 4122 4306 
z
" transform="scale(0.015625)"/>
      <path id="DejaVuSans-10" d="M 313 2009 
L 1997 2009 
L 1997 1497 
L 313 1497 
L 313 2009 
z
" transform="scale(0.015625)"/>
      <path id="DejaVuSans-58" d="M 544 1381 
L 544 3500 
L 1119 3500 
L 1119 1403 
Q 1119 906 1312 657 
Q 1506 409 1894 409 
Q 2359 409 2629 706 
Q 2900 1003 2900 1516 
L 2900 3500 
L 3475 3500 
L 3475 0 
L 2900 0 
L 2900 538 
Q 2691 219 2414 64 
Q 2138 -91 1772 -91 
Q 1169 -91 856 284 
Q 544 659 544 1381 
z
M 1991 3584 
L 1991 3584 
z
" transform="scale(0.015625)"/>
      <path id="DejaVuSans-53" d="M 1159 525 
L 1159 -1331 
L 581 -1331 
L 581 3500 
L 1159 3500 
L 1159 2969 
Q 1341 3281 1617 3432 
Q 1894 3584 2278 3584 
Q 2916 3584 3314 3078 
Q 3713 2572 3713 1747 
Q 3713 922 3314 415 
Q 2916 -91 2278 -91 
Q 1894 -91 1617 61 
Q 1341 213 1159 525 
z
M 3116 1747 
Q 3116 2381 2855 2742 
Q 2594 3103 2138 3103 
Q 1681 3103 1420 2742 
Q 1159 2381 1159 1747 
Q 1159 1113 1420 752 
Q 1681 391 2138 391 
Q 2594 391 2855 752 
Q 3116 1113 3116 1747 
z
" transform="scale(0.015625)"/>
      <path id="DejaVuSans-4f" d="M 603 4863 
L 1178 4863 
L 1178 0 
L 603 0 
L 603 4863 
z
" transform="scale(0.015625)"/>
      <path id="DejaVuSans-47" d="M 2906 2969 
L 2906 4863 
L 3481 4863 
L 3481 0 
L 2906 0 
L 2906 525 
Q 2725 213 2448 61 
Q 2172 -91 1784 -91 
Q 1150 -91 751 415 
Q 353 922 353 1747 
Q 353 2572 751 3078 
Q 1150 3584 1784 3584 
Q 2172 3584 2448 3432 
Q 2725 3281 2906 2969 
z
M 947 1747 
Q 947 1113 1208 752 
Q 1469 391 1925 391 
Q 2381 391 2643 752 
Q 2906 1113 2906 1747 
Q 2906 2381 2643 2742 
Q 2381 3103 1925 3103 
Q 1469 3103 1208 2742 
Q 947 2381 947 1747 
z
" transform="scale(0.015625)"/>
      <path id="DejaVuSans-32" d="M 2522 4238 
Q 1834 4238 1429 3725 
Q 1025 3213 1025 2328 
Q 1025 1447 1429 934 
Q 1834 422 2522 422 
Q 3209 422 3611 934 
Q 4013 1447 4013 2328 
Q 4013 3213 3611 3725 
Q 3209 4238 2522 4238 
z
M 2522 4750 
Q 3503 4750 4090 4092 
Q 4678 3434 4678 2328 
Q 4678 1225 4090 567 
Q 3503 -91 2522 -91 
Q 1538 -91 948 565 
Q 359 1222 359 2328 
Q 359 3434 948 4092 
Q 1538 4750 2522 4750 
z
" transform="scale(0.015625)"/>
      <path id="DejaVuSans-17" d="M 2419 4116 
L 825 1625 
L 2419 1625 
L 2419 4116 
z
M 2253 4666 
L 3047 4666 
L 3047 1625 
L 3713 1625 
L 3713 1100 
L 3047 1100 
L 3047 0 
L 2419 0 
L 2419 1100 
L 313 1100 
L 313 1709 
L 2253 4666 
z
" transform="scale(0.015625)"/>
      <path id="DejaVuSans-50" d="M 3328 2828 
Q 3544 3216 3844 3400 
Q 4144 3584 4550 3584 
Q 5097 3584 5394 3201 
Q 5691 2819 5691 2113 
L 5691 0 
L 5113 0 
L 5113 2094 
Q 5113 2597 4934 2840 
Q 4756 3084 4391 3084 
Q 3944 3084 3684 2787 
Q 3425 2491 3425 1978 
L 3425 0 
L 2847 0 
L 2847 2094 
Q 2847 2600 2669 2842 
Q 2491 3084 2119 3084 
Q 1678 3084 1418 2786 
Q 1159 2488 1159 1978 
L 1159 0 
L 581 0 
L 581 3500 
L 1159 3500 
L 1159 2956 
Q 1356 3278 1631 3431 
Q 1906 3584 2284 3584 
Q 2666 3584 2933 3390 
Q 3200 3197 3328 2828 
z
" transform="scale(0.015625)"/>
      <path id="DejaVuSans-4c" d="M 603 3500 
L 1178 3500 
L 1178 0 
L 603 0 
L 603 3500 
z
M 603 4863 
L 1178 4863 
L 1178 4134 
L 603 4134 
L 603 4863 
z
" transform="scale(0.015625)"/>
      <path id="DejaVuSans-13af" d="M 3431 3500 
L 3431 0 
L 2853 0 
L 2853 3053 
L 1275 3053 
L 1275 0 
L 697 0 
L 697 3053 
L 147 3053 
L 147 3500 
L 697 3500 
L 697 3744 
Q 697 4316 967 4589 
Q 1238 4863 1797 4863 
L 2375 4863 
L 2375 4384 
L 1825 4384 
Q 1516 4384 1395 4259 
Q 1275 4134 1275 3809 
L 1275 3500 
L 3431 3500 
z
M 2853 4856 
L 3431 4856 
L 3431 4128 
L 2853 4128 
L 2853 4856 
z
" transform="scale(0.015625)"/>
      <path id="DejaVuSans-55" d="M 2631 2963 
Q 2534 3019 2420 3045 
Q 2306 3072 2169 3072 
Q 1681 3072 1420 2755 
Q 1159 2438 1159 1844 
L 1159 0 
L 581 0 
L 581 3500 
L 1159 3500 
L 1159 2956 
Q 1341 3275 1631 3429 
Q 1922 3584 2338 3584 
Q 2397 3584 2469 3576 
Q 2541 3569 2628 3553 
L 2631 2963 
z
" transform="scale(0.015625)"/>
     </defs>
     <use xlink:href="#DejaVuSans-33"/>
     <use xlink:href="#DejaVuSans-52" transform="translate(56.734375 0)"/>
     <use xlink:href="#DejaVuSans-46" transform="translate(117.921875 0)"/>
     <use xlink:href="#DejaVuSans-4e" transform="translate(172.90625 0)"/>
     <use xlink:href="#DejaVuSans-48" transform="translate(227.25 0)"/>
     <use xlink:href="#DejaVuSans-57" transform="translate(288.78125 0)"/>
     <use xlink:href="#DejaVuSans-2f" transform="translate(327.984375 0)"/>
     <use xlink:href="#DejaVuSans-44" transform="translate(383.703125 0)"/>
     <use xlink:href="#DejaVuSans-45" transform="translate(444.984375 0)"/>
     <use xlink:href="#DejaVuSans-3" transform="translate(508.46875 0)"/>
     <use xlink:href="#DejaVuSans-af6" transform="translate(540.25 0)"/>
     <use xlink:href="#DejaVuSans-3" transform="translate(640.25 0)"/>
     <use xlink:href="#DejaVuSans-24" transform="translate(672.03125 0)"/>
     <use xlink:href="#DejaVuSans-27" transform="translate(740.4375 0)"/>
     <use xlink:href="#DejaVuSans-1c" transform="translate(817.4375 0)"/>
     <use xlink:href="#DejaVuSans-1b" transform="translate(881.0625 0)"/>
     <use xlink:href="#DejaVuSans-16" transform="translate(944.6875 0)"/>
     <use xlink:href="#DejaVuSans-16" transform="translate(1008.3125 0)"/>
     <use xlink:href="#DejaVuSans-3" transform="translate(1071.9375 0)"/>
     <use xlink:href="#DejaVuSans-24" transform="translate(1103.71875 0)"/>
     <use xlink:href="#DejaVuSans-26" transform="translate(1170.375 0)"/>
     <use xlink:href="#DejaVuSans-10" transform="translate(1240.203125 0)"/>
     <use xlink:href="#DejaVuSans-26" transform="translate(1276.28125 0)"/>
     <use xlink:href="#DejaVuSans-52" transform="translate(1346.109375 0)"/>
     <use xlink:href="#DejaVuSans-58" transform="translate(1407.296875 0)"/>
     <use xlink:href="#DejaVuSans-53" transform="translate(1470.671875 0)"/>
     <use xlink:href="#DejaVuSans-4f" transform="translate(1534.15625 0)"/>
     <use xlink:href="#DejaVuSans-48" transform="translate(1561.9375 0)"/>
     <use xlink:href="#DejaVuSans-47" transform="translate(1623.46875 0)"/>
     <use xlink:href="#DejaVuSans-3" transform="translate(1686.953125 0)"/>
     <use xlink:href="#DejaVuSans-32" transform="translate(1718.734375 0)"/>
     <use xlink:href="#DejaVuSans-33" transform="translate(1797.453125 0)"/>
     <use xlink:href="#DejaVuSans-17" transform="translate(1857.75 0)"/>
     <use xlink:href="#DejaVuSans-1b" transform="translate(1921.375 0)"/>
     <use xlink:href="#DejaVuSans-17" transform="translate(1985 0)"/>
     <use xlink:href="#DejaVuSans-3" transform="translate(2048.625 0)"/>
     <use xlink:href="#DejaVuSans-24" transform="translate(2080.40625 0)"/>
     <use xlink:href="#DejaVuSans-50" transform="translate(2148.8125 0)"/>
     <use xlink:href="#DejaVuSans-53" transform="translate(2246.21875 0)"/>
     <use xlink:href="#DejaVuSans-4f" transform="translate(2309.703125 0)"/>
     <use xlink:href="#DejaVuSans-4c" transform="translate(2337.484375 0)"/>
     <use xlink:href="#DejaVuSans-13af" transform="translate(2365.265625 0)"/>
     <use xlink:href="#DejaVuSans-48" transform="translate(2428.25 0)"/>
     <use xlink:href="#DejaVuSans-55" transform="translate(2489.78125 0)"/>
    </g>
   </g>
   <g id="text_2">
    <!-- Fixed non-inverting gain about buffered VREF -->
    <g transform="translate(163.625266 36.015312) scale(0.11 -0.11)">
     <defs>
      <path id="DejaVuSans-29" d="M 628 4666 
L 3309 4666 
L 3309 4134 
L 1259 4134 
L 1259 2759 
L 3109 2759 
L 3109 2228 
L 1259 2228 
L 1259 0 
L 628 0 
L 628 4666 
z
" transform="scale(0.015625)"/>
      <path id="DejaVuSans-5b" d="M 3513 3500 
L 2247 1797 
L 3578 0 
L 2900 0 
L 1881 1375 
L 863 0 
L 184 0 
L 1544 1831 
L 300 3500 
L 978 3500 
L 1906 2253 
L 2834 3500 
L 3513 3500 
z
" transform="scale(0.015625)"/>
      <path id="DejaVuSans-51" d="M 3513 2113 
L 3513 0 
L 2938 0 
L 2938 2094 
Q 2938 2591 2744 2837 
Q 2550 3084 2163 3084 
Q 1697 3084 1428 2787 
Q 1159 2491 1159 1978 
L 1159 0 
L 581 0 
L 581 3500 
L 1159 3500 
L 1159 2956 
Q 1366 3272 1645 3428 
Q 1925 3584 2291 3584 
Q 2894 3584 3203 3211 
Q 3513 2838 3513 2113 
z
" transform="scale(0.015625)"/>
      <path id="DejaVuSans-59" d="M 191 3500 
L 800 3500 
L 1894 563 
L 2988 3500 
L 3597 3500 
L 2284 0 
L 1503 0 
L 191 3500 
z
" transform="scale(0.015625)"/>
      <path id="DejaVuSans-4a" d="M 2906 1791 
Q 2906 2416 2648 2759 
Q 2391 3103 1925 3103 
Q 1463 3103 1205 2759 
Q 947 2416 947 1791 
Q 947 1169 1205 825 
Q 1463 481 1925 481 
Q 2391 481 2648 825 
Q 2906 1169 2906 1791 
z
M 3481 434 
Q 3481 -459 3084 -895 
Q 2688 -1331 1869 -1331 
Q 1566 -1331 1297 -1286 
Q 1028 -1241 775 -1147 
L 775 -588 
Q 1028 -725 1275 -790 
Q 1522 -856 1778 -856 
Q 2344 -856 2625 -561 
Q 2906 -266 2906 331 
L 2906 616 
Q 2728 306 2450 153 
Q 2172 0 1784 0 
Q 1141 0 747 490 
Q 353 981 353 1791 
Q 353 2603 747 3093 
Q 1141 3584 1784 3584 
Q 2172 3584 2450 3431 
Q 2728 3278 2906 2969 
L 2906 3500 
L 3481 3500 
L 3481 434 
z
" transform="scale(0.015625)"/>
      <path id="DejaVuSans-13ae" d="M 4531 4863 
L 4531 4384 
L 3981 4384 
Q 3672 4384 3551 4259 
Q 3431 4134 3431 3809 
L 3431 3500 
L 4378 3500 
L 4378 3053 
L 3431 3053 
L 3431 0 
L 2853 0 
L 2853 3053 
L 1275 3053 
L 1275 0 
L 697 0 
L 697 3053 
L 147 3053 
L 147 3500 
L 697 3500 
L 697 3744 
Q 697 4328 969 4595 
Q 1241 4863 1831 4863 
L 2375 4863 
L 2375 4384 
L 1825 4384 
Q 1516 4384 1394 4259 
Q 1275 4134 1275 3809 
L 1275 3500 
L 2853 3500 
L 2853 3744 
Q 2853 4328 3125 4595 
Q 3397 4863 3988 4863 
L 4531 4863 
z
" transform="scale(0.015625)"/>
      <path id="DejaVuSans-39" d="M 1831 0 
L 50 4666 
L 709 4666 
L 2188 738 
L 3669 4666 
L 4325 4666 
L 2547 0 
L 1831 0 
z
" transform="scale(0.015625)"/>
      <path id="DejaVuSans-35" d="M 2841 2188 
Q 3044 2119 3236 1894 
Q 3428 1669 3622 1275 
L 4263 0 
L 3584 0 
L 2988 1197 
Q 2756 1666 2539 1819 
Q 2322 1972 1947 1972 
L 1259 1972 
L 1259 0 
L 628 0 
L 628 4666 
L 2053 4666 
Q 2853 4666 3247 4331 
Q 3641 3997 3641 3322 
Q 3641 2881 3436 2590 
Q 3231 2300 2841 2188 
z
M 1259 4147 
L 1259 2491 
L 2053 2491 
Q 2509 2491 2742 2702 
Q 2975 2913 2975 3322 
Q 2975 3731 2742 3939 
Q 2509 4147 2053 4147 
L 1259 4147 
z
" transform="scale(0.015625)"/>
      <path id="DejaVuSans-28" d="M 628 4666 
L 3578 4666 
L 3578 4134 
L 1259 4134 
L 1259 2753 
L 3481 2753 
L 3481 2222 
L 1259 2222 
L 1259 531 
L 3634 531 
L 3634 0 
L 628 0 
L 628 4666 
z
" transform="scale(0.015625)"/>
     </defs>
     <use xlink:href="#DejaVuSans-29"/>
     <use xlink:href="#DejaVuSans-4c" transform="translate(50.234375 0)"/>
     <use xlink:href="#DejaVuSans-5b" transform="translate(78.015625 0)"/>
     <use xlink:href="#DejaVuSans-48" transform="translate(134.125 0)"/>
     <use xlink:href="#DejaVuSans-47" transform="translate(195.65625 0)"/>
     <use xlink:href="#DejaVuSans-3" transform="translate(259.140625 0)"/>
     <use xlink:href="#DejaVuSans-51" transform="translate(290.921875 0)"/>
     <use xlink:href="#DejaVuSans-52" transform="translate(354.296875 0)"/>
     <use xlink:href="#DejaVuSans-51" transform="translate(415.484375 0)"/>
     <use xlink:href="#DejaVuSans-10" transform="translate(478.859375 0)"/>
     <use xlink:href="#DejaVuSans-4c" transform="translate(514.9375 0)"/>
     <use xlink:href="#DejaVuSans-51" transform="translate(542.71875 0)"/>
     <use xlink:href="#DejaVuSans-59" transform="translate(606.09375 0)"/>
     <use xlink:href="#DejaVuSans-48" transform="translate(665.28125 0)"/>
     <use xlink:href="#DejaVuSans-55" transform="translate(726.8125 0)"/>
     <use xlink:href="#DejaVuSans-57" transform="translate(767.921875 0)"/>
     <use xlink:href="#DejaVuSans-4c" transform="translate(807.125 0)"/>
     <use xlink:href="#DejaVuSans-51" transform="translate(834.90625 0)"/>
     <use xlink:href="#DejaVuSans-4a" transform="translate(898.28125 0)"/>
     <use xlink:href="#DejaVuSans-3" transform="translate(961.765625 0)"/>
     <use xlink:href="#DejaVuSans-4a" transform="translate(993.546875 0)"/>
     <use xlink:href="#DejaVuSans-44" transform="translate(1057.03125 0)"/>
     <use xlink:href="#DejaVuSans-4c" transform="translate(1118.3125 0)"/>
     <use xlink:href="#DejaVuSans-51" transform="translate(1146.09375 0)"/>
     <use xlink:href="#DejaVuSans-3" transform="translate(1209.46875 0)"/>
     <use xlink:href="#DejaVuSans-44" transform="translate(1241.25 0)"/>
     <use xlink:href="#DejaVuSans-45" transform="translate(1302.53125 0)"/>
     <use xlink:href="#DejaVuSans-52" transform="translate(1366.015625 0)"/>
     <use xlink:href="#DejaVuSans-58" transform="translate(1427.203125 0)"/>
     <use xlink:href="#DejaVuSans-57" transform="translate(1490.578125 0)"/>
     <use xlink:href="#DejaVuSans-3" transform="translate(1529.78125 0)"/>
     <use xlink:href="#DejaVuSans-45" transform="translate(1561.5625 0)"/>
     <use xlink:href="#DejaVuSans-58" transform="translate(1625.046875 0)"/>
     <use xlink:href="#DejaVuSans-13ae" transform="translate(1688.421875 0)"/>
     <use xlink:href="#DejaVuSans-48" transform="translate(1757.3125 0)"/>
     <use xlink:href="#DejaVuSans-55" transform="translate(1818.84375 0)"/>
     <use xlink:href="#DejaVuSans-48" transform="translate(1857.75 0)"/>
     <use xlink:href="#DejaVuSans-47" transform="translate(1919.28125 0)"/>
     <use xlink:href="#DejaVuSans-3" transform="translate(1982.765625 0)"/>
     <use xlink:href="#DejaVuSans-39" transform="translate(2014.546875 0)"/>
     <use xlink:href="#DejaVuSans-35" transform="translate(2082.953125 0)"/>
     <use xlink:href="#DejaVuSans-28" transform="translate(2152.4375 0)"/>
     <use xlink:href="#DejaVuSans-29" transform="translate(2215.625 0)"/>
    </g>
   </g>
   <g id="text_3">
    <!-- AD9833 OUT -->
    <g transform="translate(1.567687 217.947812) scale(0.12 -0.12)">
     <defs>
      <path id="DejaVuSans-38" d="M 556 4666 
L 1191 4666 
L 1191 1831 
Q 1191 1081 1462 751 
Q 1734 422 2344 422 
Q 2950 422 3222 751 
Q 3494 1081 3494 1831 
L 3494 4666 
L 4128 4666 
L 4128 1753 
Q 4128 841 3676 375 
Q 3225 -91 2344 -91 
Q 1459 -91 1007 375 
Q 556 841 556 1753 
L 556 4666 
z
" transform="scale(0.015625)"/>
      <path id="DejaVuSans-37" d="M -19 4666 
L 3928 4666 
L 3928 4134 
L 2272 4134 
L 2272 0 
L 1638 0 
L 1638 4134 
L -19 4134 
L -19 4666 
z
" transform="scale(0.015625)"/>
     </defs>
     <use xlink:href="#DejaVuSans-24"/>
     <use xlink:href="#DejaVuSans-27" transform="translate(68.40625 0)"/>
     <use xlink:href="#DejaVuSans-1c" transform="translate(145.40625 0)"/>
     <use xlink:href="#DejaVuSans-1b" transform="translate(209.03125 0)"/>
     <use xlink:href="#DejaVuSans-16" transform="translate(272.65625 0)"/>
     <use xlink:href="#DejaVuSans-16" transform="translate(336.28125 0)"/>
     <use xlink:href="#DejaVuSans-3" transform="translate(399.90625 0)"/>
     <use xlink:href="#DejaVuSans-32" transform="translate(431.6875 0)"/>
     <use xlink:href="#DejaVuSans-38" transform="translate(510.40625 0)"/>
     <use xlink:href="#DejaVuSans-37" transform="translate(583.59375 0)"/>
    </g>
    <!-- ≈0.62 Vpp -->
    <g transform="translate(8.231437 228.785312) scale(0.12 -0.12)">
     <defs>
      <path id="DejaVuSans-cd2" d="M 4684 1947 
L 4684 1388 
Q 4356 1144 4076 1036 
Q 3797 928 3494 928 
Q 3150 928 2694 1113 
Q 2663 1125 2641 1134 
Q 2622 1141 2575 1159 
Q 2091 1350 1797 1350 
Q 1522 1350 1253 1231 
Q 984 1113 678 850 
L 678 1409 
Q 1006 1653 1286 1761 
Q 1566 1869 1869 1869 
Q 2213 1869 2672 1684 
Q 2706 1669 2722 1663 
Q 2741 1656 2788 1638 
Q 3272 1447 3566 1447 
Q 3834 1447 4098 1564 
Q 4363 1681 4684 1947 
z
M 4684 3163 
L 4684 2606 
Q 4356 2359 4076 2251 
Q 3797 2144 3494 2144 
Q 3150 2144 2694 2328 
Q 2663 2341 2641 2350 
Q 2622 2356 2575 2375 
Q 2091 2566 1797 2566 
Q 1522 2566 1253 2447 
Q 984 2328 678 2069 
L 678 2625 
Q 1006 2869 1286 2976 
Q 1566 3084 1869 3084 
Q 2213 3084 2672 2900 
Q 2703 2888 2719 2881 
Q 2741 2872 2788 2853 
Q 3272 2663 3566 2663 
Q 3834 2663 4098 2780 
Q 4363 2897 4684 3163 
z
" transform="scale(0.015625)"/>
      <path id="DejaVuSans-13" d="M 2034 4250 
Q 1547 4250 1301 3770 
Q 1056 3291 1056 2328 
Q 1056 1369 1301 889 
Q 1547 409 2034 409 
Q 2525 409 2770 889 
Q 3016 1369 3016 2328 
Q 3016 3291 2770 3770 
Q 2525 4250 2034 4250 
z
M 2034 4750 
Q 2819 4750 3233 4129 
Q 3647 3509 3647 2328 
Q 3647 1150 3233 529 
Q 2819 -91 2034 -91 
Q 1250 -91 836 529 
Q 422 1150 422 2328 
Q 422 3509 836 4129 
Q 1250 4750 2034 4750 
z
" transform="scale(0.015625)"/>
      <path id="DejaVuSans-11" d="M 684 794 
L 1344 794 
L 1344 0 
L 684 0 
L 684 794 
z
" transform="scale(0.015625)"/>
      <path id="DejaVuSans-19" d="M 2113 2584 
Q 1688 2584 1439 2293 
Q 1191 2003 1191 1497 
Q 1191 994 1439 701 
Q 1688 409 2113 409 
Q 2538 409 2786 701 
Q 3034 994 3034 1497 
Q 3034 2003 2786 2293 
Q 2538 2584 2113 2584 
z
M 3366 4563 
L 3366 3988 
Q 3128 4100 2886 4159 
Q 2644 4219 2406 4219 
Q 1781 4219 1451 3797 
Q 1122 3375 1075 2522 
Q 1259 2794 1537 2939 
Q 1816 3084 2150 3084 
Q 2853 3084 3261 2657 
Q 3669 2231 3669 1497 
Q 3669 778 3244 343 
Q 2819 -91 2113 -91 
Q 1303 -91 875 529 
Q 447 1150 447 2328 
Q 447 3434 972 4092 
Q 1497 4750 2381 4750 
Q 2619 4750 2861 4703 
Q 3103 4656 3366 4563 
z
" transform="scale(0.015625)"/>
      <path id="DejaVuSans-15" d="M 1228 531 
L 3431 531 
L 3431 0 
L 469 0 
L 469 531 
Q 828 903 1448 1529 
Q 2069 2156 2228 2338 
Q 2531 2678 2651 2914 
Q 2772 3150 2772 3378 
Q 2772 3750 2511 3984 
Q 2250 4219 1831 4219 
Q 1534 4219 1204 4116 
Q 875 4013 500 3803 
L 500 4441 
Q 881 4594 1212 4672 
Q 1544 4750 1819 4750 
Q 2544 4750 2975 4387 
Q 3406 4025 3406 3419 
Q 3406 3131 3298 2873 
Q 3191 2616 2906 2266 
Q 2828 2175 2409 1742 
Q 1991 1309 1228 531 
z
" transform="scale(0.015625)"/>
     </defs>
     <use xlink:href="#DejaVuSans-cd2"/>
     <use xlink:href="#DejaVuSans-13" transform="translate(83.796875 0)"/>
     <use xlink:href="#DejaVuSans-11" transform="translate(147.421875 0)"/>
     <use xlink:href="#DejaVuSans-19" transform="translate(179.203125 0)"/>
     <use xlink:href="#DejaVuSans-15" transform="translate(242.828125 0)"/>
     <use xlink:href="#DejaVuSans-3" transform="translate(306.453125 0)"/>
     <use xlink:href="#DejaVuSans-39" transform="translate(338.234375 0)"/>
     <use xlink:href="#DejaVuSans-53" transform="translate(406.640625 0)"/>
     <use xlink:href="#DejaVuSans-53" transform="translate(470.125 0)"/>
    </g>
   </g>
   <g id="text_4">
    <!-- C1  1 µF -->
    <g transform="translate(105.43425 68.585313) scale(0.12 -0.12)">
     <defs>
      <path id="DejaVuSans-14" d="M 794 531 
L 1825 531 
L 1825 4091 
L 703 3866 
L 703 4441 
L 1819 4666 
L 2450 4666 
L 2450 531 
L 3481 531 
L 3481 0 
L 794 0 
L 794 531 
z
" transform="scale(0.015625)"/>
      <path id="DejaVuSans-77" d="M 544 -1331 
L 544 3500 
L 1119 3500 
L 1119 1325 
Q 1119 872 1334 640 
Q 1550 409 1972 409 
Q 2434 409 2667 671 
Q 2900 934 2900 1459 
L 2900 3500 
L 3475 3500 
L 3475 806 
Q 3475 619 3529 530 
Q 3584 441 3700 441 
Q 3728 441 3778 458 
Q 3828 475 3916 513 
L 3916 50 
Q 3788 -22 3673 -56 
Q 3559 -91 3450 -91 
Q 3234 -91 3106 31 
Q 2978 153 2931 403 
Q 2775 156 2548 32 
Q 2322 -91 2016 -91 
Q 1697 -91 1473 31 
Q 1250 153 1119 397 
L 1119 -1331 
L 544 -1331 
z
" transform="scale(0.015625)"/>
     </defs>
     <use xlink:href="#DejaVuSans-26"/>
     <use xlink:href="#DejaVuSans-14" transform="translate(69.828125 0)"/>
     <use xlink:href="#DejaVuSans-3" transform="translate(133.453125 0)"/>
     <use xlink:href="#DejaVuSans-3" transform="translate(165.234375 0)"/>
     <use xlink:href="#DejaVuSans-14" transform="translate(197.015625 0)"/>
     <use xlink:href="#DejaVuSans-3" transform="translate(260.640625 0)"/>
     <use xlink:href="#DejaVuSans-77" transform="translate(292.421875 0)"/>
     <use xlink:href="#DejaVuSans-29" transform="translate(356.046875 0)"/>
    </g>
    <!-- AC coupling -->
    <g transform="translate(94.624875 80.69125) scale(0.12 -0.12)">
     <use xlink:href="#DejaVuSans-24"/>
     <use xlink:href="#DejaVuSans-26" transform="translate(66.65625 0)"/>
     <use xlink:href="#DejaVuSans-3" transform="translate(136.484375 0)"/>
     <use xlink:href="#DejaVuSans-46" transform="translate(168.265625 0)"/>
     <use xlink:href="#DejaVuSans-52" transform="translate(223.25 0)"/>
     <use xlink:href="#DejaVuSans-58" transform="translate(284.4375 0)"/>
     <use xlink:href="#DejaVuSans-53" transform="translate(347.8125 0)"/>
     <use xlink:href="#DejaVuSans-4f" transform="translate(411.296875 0)"/>
     <use xlink:href="#DejaVuSans-4c" transform="translate(439.078125 0)"/>
     <use xlink:href="#DejaVuSans-51" transform="translate(466.859375 0)"/>
     <use xlink:href="#DejaVuSans-4a" transform="translate(530.234375 0)"/>
    </g>
   </g>
   <g id="text_5">
    <!-- U1A -->
    <g transform="translate(358.506018 123.069063) scale(0.12 -0.12)">
     <use xlink:href="#DejaVuSans-38"/>
     <use xlink:href="#DejaVuSans-14" transform="translate(73.1875 0)"/>
     <use xlink:href="#DejaVuSans-24" transform="translate(136.8125 0)"/>
    </g>
    <!-- OP484 -->
    <g transform="translate(351.025706 135.147813) scale(0.12 -0.12)">
     <use xlink:href="#DejaVuSans-32"/>
     <use xlink:href="#DejaVuSans-33" transform="translate(78.71875 0)"/>
     <use xlink:href="#DejaVuSans-17" transform="translate(139.015625 0)"/>
     <use xlink:href="#DejaVuSans-1b" transform="translate(202.640625 0)"/>
     <use xlink:href="#DejaVuSans-17" transform="translate(266.265625 0)"/>
    </g>
   </g>
   <g id="text_6">
    <!-- 3  (+) -->
    <g transform="translate(279.546437 155.634375) scale(0.1 -0.1)">
     <defs>
      <path id="DejaVuSans-b" d="M 1984 4856 
Q 1566 4138 1362 3434 
Q 1159 2731 1159 2009 
Q 1159 1288 1364 580 
Q 1569 -128 1984 -844 
L 1484 -844 
Q 1016 -109 783 600 
Q 550 1309 550 2009 
Q 550 2706 781 3412 
Q 1013 4119 1484 4856 
L 1984 4856 
z
" transform="scale(0.015625)"/>
      <path id="DejaVuSans-e" d="M 2944 4013 
L 2944 2272 
L 4684 2272 
L 4684 1741 
L 2944 1741 
L 2944 0 
L 2419 0 
L 2419 1741 
L 678 1741 
L 678 2272 
L 2419 2272 
L 2419 4013 
L 2944 4013 
z
" transform="scale(0.015625)"/>
      <path id="DejaVuSans-c" d="M 513 4856 
L 1013 4856 
Q 1481 4119 1714 3412 
Q 1947 2706 1947 2009 
Q 1947 1309 1714 600 
Q 1481 -109 1013 -844 
L 513 -844 
Q 928 -128 1133 580 
Q 1338 1288 1338 2009 
Q 1338 2731 1133 3434 
Q 928 4138 513 4856 
z
" transform="scale(0.015625)"/>
     </defs>
     <use xlink:href="#DejaVuSans-16"/>
     <use xlink:href="#DejaVuSans-3" transform="translate(63.625 0)"/>
     <use xlink:href="#DejaVuSans-3" transform="translate(95.40625 0)"/>
     <use xlink:href="#DejaVuSans-b" transform="translate(127.1875 0)"/>
     <use xlink:href="#DejaVuSans-e" transform="translate(166.203125 0)"/>
     <use xlink:href="#DejaVuSans-c" transform="translate(250 0)"/>
    </g>
   </g>
   <g id="text_7">
    <!-- 2  (−) -->
    <g transform="translate(279.546437 100.194375) scale(0.1 -0.1)">
     <defs>
      <path id="DejaVuSans-c9c" d="M 678 2272 
L 4684 2272 
L 4684 1741 
L 678 1741 
L 678 2272 
z
" transform="scale(0.015625)"/>
     </defs>
     <use xlink:href="#DejaVuSans-15"/>
     <use xlink:href="#DejaVuSans-3" transform="translate(63.625 0)"/>
     <use xlink:href="#DejaVuSans-3" transform="translate(95.40625 0)"/>
     <use xlink:href="#DejaVuSans-b" transform="translate(127.1875 0)"/>
     <use xlink:href="#DejaVuSans-c9c" transform="translate(166.203125 0)"/>
     <use xlink:href="#DejaVuSans-c" transform="translate(250 0)"/>
    </g>
   </g>
   <g id="text_8">
    <!-- VOUT -->
    <g transform="translate(499.790286 126.747813) scale(0.12 -0.12)">
     <use xlink:href="#DejaVuSans-39"/>
     <use xlink:href="#DejaVuSans-32" transform="translate(66.65625 0)"/>
     <use xlink:href="#DejaVuSans-38" transform="translate(145.375 0)"/>
     <use xlink:href="#DejaVuSans-37" transform="translate(218.5625 0)"/>
    </g>
    <!-- ≈4.3 Vpp max -->
    <g transform="translate(499.790286 137.585312) scale(0.12 -0.12)">
     <use xlink:href="#DejaVuSans-cd2"/>
     <use xlink:href="#DejaVuSans-17" transform="translate(83.796875 0)"/>
     <use xlink:href="#DejaVuSans-11" transform="translate(147.421875 0)"/>
     <use xlink:href="#DejaVuSans-16" transform="translate(179.203125 0)"/>
     <use xlink:href="#DejaVuSans-3" transform="translate(242.828125 0)"/>
     <use xlink:href="#DejaVuSans-39" transform="translate(274.609375 0)"/>
     <use xlink:href="#DejaVuSans-53" transform="translate(343.015625 0)"/>
     <use xlink:href="#DejaVuSans-53" transform="translate(406.5 0)"/>
     <use xlink:href="#DejaVuSans-3" transform="translate(469.984375 0)"/>
     <use xlink:href="#DejaVuSans-50" transform="translate(501.765625 0)"/>
     <use xlink:href="#DejaVuSans-44" transform="translate(599.171875 0)"/>
     <use xlink:href="#DejaVuSans-5b" transform="translate(660.453125 0)"/>
    </g>
   </g>
   <g id="text_9">
    <!-- 1  OUT -->
    <g transform="translate(393.048 128.419844) scale(0.1 -0.1)">
     <use xlink:href="#DejaVuSans-14"/>
     <use xlink:href="#DejaVuSans-3" transform="translate(63.625 0)"/>
     <use xlink:href="#DejaVuSans-3" transform="translate(95.40625 0)"/>
     <use xlink:href="#DejaVuSans-32" transform="translate(127.1875 0)"/>
     <use xlink:href="#DejaVuSans-38" transform="translate(205.90625 0)"/>
     <use xlink:href="#DejaVuSans-37" transform="translate(279.09375 0)"/>
    </g>
   </g>
   <g id="text_10">
    <!-- Rf  62.0 kΩ -->
    <g transform="translate(379.969349 60.25375) scale(0.12 -0.12)">
     <defs>
      <path id="DejaVuSans-49" d="M 2375 4863 
L 2375 4384 
L 1825 4384 
Q 1516 4384 1395 4259 
Q 1275 4134 1275 3809 
L 1275 3500 
L 2222 3500 
L 2222 3053 
L 1275 3053 
L 1275 0 
L 697 0 
L 697 3053 
L 147 3053 
L 147 3500 
L 697 3500 
L 697 3744 
Q 697 4328 969 4595 
Q 1241 4863 1831 4863 
L 2375 4863 
z
" transform="scale(0.015625)"/>
      <path id="DejaVuSans-33d" d="M 4647 556 
L 4647 0 
L 2772 0 
L 2772 556 
Q 3325 859 3634 1378 
Q 3944 1897 3944 2528 
Q 3944 3278 3531 3731 
Q 3119 4184 2444 4184 
Q 1769 4184 1355 3729 
Q 941 3275 941 2528 
Q 941 1897 1250 1378 
Q 1563 859 2119 556 
L 2119 0 
L 244 0 
L 244 556 
L 1241 556 
Q 747 991 519 1456 
Q 294 1922 294 2497 
Q 294 3491 894 4106 
Q 1491 4722 2444 4722 
Q 3391 4722 3994 4106 
Q 4594 3494 4594 2528 
Q 4594 1922 4372 1459 
Q 4150 997 3647 556 
L 4647 556 
z
" transform="scale(0.015625)"/>
     </defs>
     <use xlink:href="#DejaVuSans-35"/>
     <use xlink:href="#DejaVuSans-49" transform="translate(69.484375 0)"/>
     <use xlink:href="#DejaVuSans-3" transform="translate(104.6875 0)"/>
     <use xlink:href="#DejaVuSans-3" transform="translate(136.46875 0)"/>
     <use xlink:href="#DejaVuSans-19" transform="translate(168.25 0)"/>
     <use xlink:href="#DejaVuSans-15" transform="translate(231.875 0)"/>
     <use xlink:href="#DejaVuSans-11" transform="translate(295.5 0)"/>
     <use xlink:href="#DejaVuSans-13" transform="translate(327.28125 0)"/>
     <use xlink:href="#DejaVuSans-3" transform="translate(390.90625 0)"/>
     <use xlink:href="#DejaVuSans-4e" transform="translate(422.6875 0)"/>
     <use xlink:href="#DejaVuSans-33d" transform="translate(480.59375 0)"/>
    </g>
   </g>
   <g id="text_11">
    <!-- BUFFERED VREF ≈ 2.4 V -->
    <g style="fill: #2166ac" transform="translate(79.848 245.547812) scale(0.12 -0.12)">
     <defs>
      <path id="DejaVuSans-25" d="M 1259 2228 
L 1259 519 
L 2272 519 
Q 2781 519 3026 730 
Q 3272 941 3272 1375 
Q 3272 1813 3026 2020 
Q 2781 2228 2272 2228 
L 1259 2228 
z
M 1259 4147 
L 1259 2741 
L 2194 2741 
Q 2656 2741 2882 2914 
Q 3109 3088 3109 3444 
Q 3109 3797 2882 3972 
Q 2656 4147 2194 4147 
L 1259 4147 
z
M 628 4666 
L 2241 4666 
Q 2963 4666 3353 4366 
Q 3744 4066 3744 3513 
Q 3744 3084 3544 2831 
Q 3344 2578 2956 2516 
Q 3422 2416 3680 2098 
Q 3938 1781 3938 1306 
Q 3938 681 3513 340 
Q 3088 0 2303 0 
L 628 0 
L 628 4666 
z
" transform="scale(0.015625)"/>
     </defs>
     <use xlink:href="#DejaVuSans-25"/>
     <use xlink:href="#DejaVuSans-38" transform="translate(68.609375 0)"/>
     <use xlink:href="#DejaVuSans-29" transform="translate(141.796875 0)"/>
     <use xlink:href="#DejaVuSans-29" transform="translate(199.3125 0)"/>
     <use xlink:href="#DejaVuSans-28" transform="translate(256.828125 0)"/>
     <use xlink:href="#DejaVuSans-35" transform="translate(320.015625 0)"/>
     <use xlink:href="#DejaVuSans-28" transform="translate(389.5 0)"/>
     <use xlink:href="#DejaVuSans-27" transform="translate(452.6875 0)"/>
     <use xlink:href="#DejaVuSans-3" transform="translate(529.6875 0)"/>
     <use xlink:href="#DejaVuSans-39" transform="translate(561.46875 0)"/>
     <use xlink:href="#DejaVuSans-35" transform="translate(629.875 0)"/>
     <use xlink:href="#DejaVuSans-28" transform="translate(699.359375 0)"/>
     <use xlink:href="#DejaVuSans-29" transform="translate(762.546875 0)"/>
     <use xlink:href="#DejaVuSans-3" transform="translate(820.0625 0)"/>
     <use xlink:href="#DejaVuSans-cd2" transform="translate(851.84375 0)"/>
     <use xlink:href="#DejaVuSans-3" transform="translate(935.640625 0)"/>
     <use xlink:href="#DejaVuSans-15" transform="translate(967.421875 0)"/>
     <use xlink:href="#DejaVuSans-11" transform="translate(1031.046875 0)"/>
     <use xlink:href="#DejaVuSans-17" transform="translate(1062.828125 0)"/>
     <use xlink:href="#DejaVuSans-3" transform="translate(1126.453125 0)"/>
     <use xlink:href="#DejaVuSans-39" transform="translate(1158.234375 0)"/>
    </g>
   </g>
   <g id="text_12">
    <!-- Rbias  10 kΩ -->
    <g transform="translate(182.385187 90.85375) scale(0.12 -0.12)">
     <defs>
      <path id="DejaVuSans-56" d="M 2834 3397 
L 2834 2853 
Q 2591 2978 2328 3040 
Q 2066 3103 1784 3103 
Q 1356 3103 1142 2972 
Q 928 2841 928 2578 
Q 928 2378 1081 2264 
Q 1234 2150 1697 2047 
L 1894 2003 
Q 2506 1872 2764 1633 
Q 3022 1394 3022 966 
Q 3022 478 2636 193 
Q 2250 -91 1575 -91 
Q 1294 -91 989 -36 
Q 684 19 347 128 
L 347 722 
Q 666 556 975 473 
Q 1284 391 1588 391 
Q 1994 391 2212 530 
Q 2431 669 2431 922 
Q 2431 1156 2273 1281 
Q 2116 1406 1581 1522 
L 1381 1569 
Q 847 1681 609 1914 
Q 372 2147 372 2553 
Q 372 3047 722 3315 
Q 1072 3584 1716 3584 
Q 2034 3584 2315 3537 
Q 2597 3491 2834 3397 
z
" transform="scale(0.015625)"/>
     </defs>
     <use xlink:href="#DejaVuSans-35"/>
     <use xlink:href="#DejaVuSans-45" transform="translate(69.484375 0)"/>
     <use xlink:href="#DejaVuSans-4c" transform="translate(132.96875 0)"/>
     <use xlink:href="#DejaVuSans-44" transform="translate(160.75 0)"/>
     <use xlink:href="#DejaVuSans-56" transform="translate(222.03125 0)"/>
     <use xlink:href="#DejaVuSans-3" transform="translate(274.125 0)"/>
     <use xlink:href="#DejaVuSans-3" transform="translate(305.90625 0)"/>
     <use xlink:href="#DejaVuSans-14" transform="translate(337.6875 0)"/>
     <use xlink:href="#DejaVuSans-13" transform="translate(401.3125 0)"/>
     <use xlink:href="#DejaVuSans-3" transform="translate(464.9375 0)"/>
     <use xlink:href="#DejaVuSans-4e" transform="translate(496.71875 0)"/>
     <use xlink:href="#DejaVuSans-33d" transform="translate(554.625 0)"/>
    </g>
   </g>
   <g id="text_13">
    <!-- Rg  10.19 kΩ -->
    <g transform="translate(289.312687 99.59125) scale(0.12 -0.12)">
     <use xlink:href="#DejaVuSans-35"/>
     <use xlink:href="#DejaVuSans-4a" transform="translate(69.484375 0)"/>
     <use xlink:href="#DejaVuSans-3" transform="translate(132.96875 0)"/>
     <use xlink:href="#DejaVuSans-3" transform="translate(164.75 0)"/>
     <use xlink:href="#DejaVuSans-14" transform="translate(196.53125 0)"/>
     <use xlink:href="#DejaVuSans-13" transform="translate(260.15625 0)"/>
     <use xlink:href="#DejaVuSans-11" transform="translate(323.78125 0)"/>
     <use xlink:href="#DejaVuSans-14" transform="translate(355.5625 0)"/>
     <use xlink:href="#DejaVuSans-1c" transform="translate(419.1875 0)"/>
     <use xlink:href="#DejaVuSans-3" transform="translate(482.8125 0)"/>
     <use xlink:href="#DejaVuSans-4e" transform="translate(514.59375 0)"/>
     <use xlink:href="#DejaVuSans-33d" transform="translate(572.5 0)"/>
    </g>
   </g>
   <g id="text_14">
    <!-- OSCILLOSCOPE CONNECTIONS -->
    <g transform="translate(439.848 80.183828) scale(0.11 -0.11)">
     <defs>
      <path id="DejaVuSans-36" d="M 3425 4513 
L 3425 3897 
Q 3066 4069 2747 4153 
Q 2428 4238 2131 4238 
Q 1616 4238 1336 4038 
Q 1056 3838 1056 3469 
Q 1056 3159 1242 3001 
Q 1428 2844 1947 2747 
L 2328 2669 
Q 3034 2534 3370 2195 
Q 3706 1856 3706 1288 
Q 3706 609 3251 259 
Q 2797 -91 1919 -91 
Q 1588 -91 1214 -16 
Q 841 59 441 206 
L 441 856 
Q 825 641 1194 531 
Q 1563 422 1919 422 
Q 2459 422 2753 634 
Q 3047 847 3047 1241 
Q 3047 1584 2836 1778 
Q 2625 1972 2144 2069 
L 1759 2144 
Q 1053 2284 737 2584 
Q 422 2884 422 3419 
Q 422 4038 858 4394 
Q 1294 4750 2059 4750 
Q 2388 4750 2728 4690 
Q 3069 4631 3425 4513 
z
" transform="scale(0.015625)"/>
      <path id="DejaVuSans-2c" d="M 628 4666 
L 1259 4666 
L 1259 0 
L 628 0 
L 628 4666 
z
" transform="scale(0.015625)"/>
      <path id="DejaVuSans-31" d="M 628 4666 
L 1478 4666 
L 3547 763 
L 3547 4666 
L 4159 4666 
L 4159 0 
L 3309 0 
L 1241 3903 
L 1241 0 
L 628 0 
L 628 4666 
z
" transform="scale(0.015625)"/>
     </defs>
     <use xlink:href="#DejaVuSans-32"/>
     <use xlink:href="#DejaVuSans-36" transform="translate(78.71875 0)"/>
     <use xlink:href="#DejaVuSans-26" transform="translate(142.203125 0)"/>
     <use xlink:href="#DejaVuSans-2c" transform="translate(212.03125 0)"/>
     <use xlink:href="#DejaVuSans-2f" transform="translate(241.53125 0)"/>
     <use xlink:href="#DejaVuSans-2f" transform="translate(297.25 0)"/>
     <use xlink:href="#DejaVuSans-32" transform="translate(349.40625 0)"/>
     <use xlink:href="#DejaVuSans-36" transform="translate(428.125 0)"/>
     <use xlink:href="#DejaVuSans-26" transform="translate(491.609375 0)"/>
     <use xlink:href="#DejaVuSans-32" transform="translate(561.4375 0)"/>
     <use xlink:href="#DejaVuSans-33" transform="translate(640.15625 0)"/>
     <use xlink:href="#DejaVuSans-28" transform="translate(700.453125 0)"/>
     <use xlink:href="#DejaVuSans-3" transform="translate(763.640625 0)"/>
     <use xlink:href="#DejaVuSans-26" transform="translate(795.421875 0)"/>
     <use xlink:href="#DejaVuSans-32" transform="translate(865.25 0)"/>
     <use xlink:href="#DejaVuSans-31" transform="translate(943.96875 0)"/>
     <use xlink:href="#DejaVuSans-31" transform="translate(1018.78125 0)"/>
     <use xlink:href="#DejaVuSans-28" transform="translate(1093.59375 0)"/>
     <use xlink:href="#DejaVuSans-26" transform="translate(1156.78125 0)"/>
     <use xlink:href="#DejaVuSans-37" transform="translate(1226.609375 0)"/>
     <use xlink:href="#DejaVuSans-2c" transform="translate(1287.6875 0)"/>
     <use xlink:href="#DejaVuSans-32" transform="translate(1317.1875 0)"/>
     <use xlink:href="#DejaVuSans-31" transform="translate(1395.90625 0)"/>
     <use xlink:href="#DejaVuSans-36" transform="translate(1470.71875 0)"/>
    </g>
   </g>
   <g id="text_15">
    <!-- C1+ → TP1 (coupled input) -->
    <g transform="translate(439.848 105.539375) scale(0.1 -0.1)">
     <defs>
      <path id="DejaVuSans-c1c" d="M 5050 2147 
L 5050 1866 
L 3822 638 
L 3447 1013 
L 4175 1741 
L 366 1741 
L 366 2272 
L 4175 2272 
L 3447 3000 
L 3822 3375 
L 5050 2147 
z
" transform="scale(0.015625)"/>
     </defs>
     <use xlink:href="#DejaVuSans-26"/>
     <use xlink:href="#DejaVuSans-14" transform="translate(69.828125 0)"/>
     <use xlink:href="#DejaVuSans-e" transform="translate(133.453125 0)"/>
     <use xlink:href="#DejaVuSans-3" transform="translate(217.25 0)"/>
     <use xlink:href="#DejaVuSans-c1c" transform="translate(249.03125 0)"/>
     <use xlink:href="#DejaVuSans-3" transform="translate(332.828125 0)"/>
     <use xlink:href="#DejaVuSans-37" transform="translate(364.609375 0)"/>
     <use xlink:href="#DejaVuSans-33" transform="translate(425.6875 0)"/>
     <use xlink:href="#DejaVuSans-14" transform="translate(485.984375 0)"/>
     <use xlink:href="#DejaVuSans-3" transform="translate(549.609375 0)"/>
     <use xlink:href="#DejaVuSans-b" transform="translate(581.390625 0)"/>
     <use xlink:href="#DejaVuSans-46" transform="translate(620.40625 0)"/>
     <use xlink:href="#DejaVuSans-52" transform="translate(675.390625 0)"/>
     <use xlink:href="#DejaVuSans-58" transform="translate(736.578125 0)"/>
     <use xlink:href="#DejaVuSans-53" transform="translate(799.953125 0)"/>
     <use xlink:href="#DejaVuSans-4f" transform="translate(863.4375 0)"/>
     <use xlink:href="#DejaVuSans-48" transform="translate(891.21875 0)"/>
     <use xlink:href="#DejaVuSans-47" transform="translate(952.75 0)"/>
     <use xlink:href="#DejaVuSans-3" transform="translate(1016.234375 0)"/>
     <use xlink:href="#DejaVuSans-4c" transform="translate(1048.015625 0)"/>
     <use xlink:href="#DejaVuSans-51" transform="translate(1075.796875 0)"/>
     <use xlink:href="#DejaVuSans-53" transform="translate(1139.171875 0)"/>
     <use xlink:href="#DejaVuSans-58" transform="translate(1202.65625 0)"/>
     <use xlink:href="#DejaVuSans-57" transform="translate(1266.03125 0)"/>
     <use xlink:href="#DejaVuSans-c" transform="translate(1305.234375 0)"/>
    </g>
    <!-- C2+ → TP2 (amplifier output) -->
    <g transform="translate(439.848 115.539375) scale(0.1 -0.1)">
     <use xlink:href="#DejaVuSans-26"/>
     <use xlink:href="#DejaVuSans-15" transform="translate(69.828125 0)"/>
     <use xlink:href="#DejaVuSans-e" transform="translate(133.453125 0)"/>
     <use xlink:href="#DejaVuSans-3" transform="translate(217.25 0)"/>
     <use xlink:href="#DejaVuSans-c1c" transform="translate(249.03125 0)"/>
     <use xlink:href="#DejaVuSans-3" transform="translate(332.828125 0)"/>
     <use xlink:href="#DejaVuSans-37" transform="translate(364.609375 0)"/>
     <use xlink:href="#DejaVuSans-33" transform="translate(425.6875 0)"/>
     <use xlink:href="#DejaVuSans-15" transform="translate(485.984375 0)"/>
     <use xlink:href="#DejaVuSans-3" transform="translate(549.609375 0)"/>
     <use xlink:href="#DejaVuSans-b" transform="translate(581.390625 0)"/>
     <use xlink:href="#DejaVuSans-44" transform="translate(620.40625 0)"/>
     <use xlink:href="#DejaVuSans-50" transform="translate(681.6875 0)"/>
     <use xlink:href="#DejaVuSans-53" transform="translate(779.09375 0)"/>
     <use xlink:href="#DejaVuSans-4f" transform="translate(842.578125 0)"/>
     <use xlink:href="#DejaVuSans-4c" transform="translate(870.359375 0)"/>
     <use xlink:href="#DejaVuSans-13af" transform="translate(898.140625 0)"/>
     <use xlink:href="#DejaVuSans-48" transform="translate(961.125 0)"/>
     <use xlink:href="#DejaVuSans-55" transform="translate(1022.65625 0)"/>
     <use xlink:href="#DejaVuSans-3" transform="translate(1063.765625 0)"/>
     <use xlink:href="#DejaVuSans-52" transform="translate(1095.546875 0)"/>
     <use xlink:href="#DejaVuSans-58" transform="translate(1156.734375 0)"/>
     <use xlink:href="#DejaVuSans-57" transform="translate(1220.109375 0)"/>
     <use xlink:href="#DejaVuSans-53" transform="translate(1259.3125 0)"/>
     <use xlink:href="#DejaVuSans-58" transform="translate(1322.796875 0)"/>
     <use xlink:href="#DejaVuSans-57" transform="translate(1386.171875 0)"/>
     <use xlink:href="#DejaVuSans-c" transform="translate(1425.375 0)"/>
    </g>
    <!-- C1−, C2− → circuit GND -->
    <g transform="translate(439.848 125.997969) scale(0.1 -0.1)">
     <defs>
      <path id="DejaVuSans-f" d="M 750 794 
L 1409 794 
L 1409 256 
L 897 -744 
L 494 -744 
L 750 256 
L 750 794 
z
" transform="scale(0.015625)"/>
      <path id="DejaVuSans-2a" d="M 3809 666 
L 3809 1919 
L 2778 1919 
L 2778 2438 
L 4434 2438 
L 4434 434 
Q 4069 175 3628 42 
Q 3188 -91 2688 -91 
Q 1594 -91 976 548 
Q 359 1188 359 2328 
Q 359 3472 976 4111 
Q 1594 4750 2688 4750 
Q 3144 4750 3555 4637 
Q 3966 4525 4313 4306 
L 4313 3634 
Q 3963 3931 3569 4081 
Q 3175 4231 2741 4231 
Q 1884 4231 1454 3753 
Q 1025 3275 1025 2328 
Q 1025 1384 1454 906 
Q 1884 428 2741 428 
Q 3075 428 3337 486 
Q 3600 544 3809 666 
z
" transform="scale(0.015625)"/>
     </defs>
     <use xlink:href="#DejaVuSans-26"/>
     <use xlink:href="#DejaVuSans-14" transform="translate(69.828125 0)"/>
     <use xlink:href="#DejaVuSans-c9c" transform="translate(133.453125 0)"/>
     <use xlink:href="#DejaVuSans-f" transform="translate(217.25 0)"/>
     <use xlink:href="#DejaVuSans-3" transform="translate(249.03125 0)"/>
     <use xlink:href="#DejaVuSans-26" transform="translate(280.8125 0)"/>
     <use xlink:href="#DejaVuSans-15" transform="translate(350.640625 0)"/>
     <use xlink:href="#DejaVuSans-c9c" transform="translate(414.265625 0)"/>
     <use xlink:href="#DejaVuSans-3" transform="translate(498.0625 0)"/>
     <use xlink:href="#DejaVuSans-c1c" transform="translate(529.84375 0)"/>
     <use xlink:href="#DejaVuSans-3" transform="translate(613.640625 0)"/>
     <use xlink:href="#DejaVuSans-46" transform="translate(645.421875 0)"/>
     <use xlink:href="#DejaVuSans-4c" transform="translate(700.40625 0)"/>
     <use xlink:href="#DejaVuSans-55" transform="translate(728.1875 0)"/>
     <use xlink:href="#DejaVuSans-46" transform="translate(767.09375 0)"/>
     <use xlink:href="#DejaVuSans-58" transform="translate(822.078125 0)"/>
     <use xlink:href="#DejaVuSans-4c" transform="translate(885.453125 0)"/>
     <use xlink:href="#DejaVuSans-57" transform="translate(913.234375 0)"/>
     <use xlink:href="#DejaVuSans-3" transform="translate(952.4375 0)"/>
     <use xlink:href="#DejaVuSans-2a" transform="translate(984.21875 0)"/>
     <use xlink:href="#DejaVuSans-31" transform="translate(1061.703125 0)"/>
     <use xlink:href="#DejaVuSans-27" transform="translate(1136.515625 0)"/>
    </g>
   </g>
   <g id="text_16">
    <!-- OP484 power (shared) -->
    <g transform="translate(439.848 181.815312) scale(0.11 -0.11)">
     <defs>
      <path id="DejaVuSans-5a" d="M 269 3500 
L 844 3500 
L 1563 769 
L 2278 3500 
L 2956 3500 
L 3675 769 
L 4391 3500 
L 4966 3500 
L 4050 0 
L 3372 0 
L 2619 2869 
L 1863 0 
L 1184 0 
L 269 3500 
z
" transform="scale(0.015625)"/>
      <path id="DejaVuSans-4b" d="M 3513 2113 
L 3513 0 
L 2938 0 
L 2938 2094 
Q 2938 2591 2744 2837 
Q 2550 3084 2163 3084 
Q 1697 3084 1428 2787 
Q 1159 2491 1159 1978 
L 1159 0 
L 581 0 
L 581 4863 
L 1159 4863 
L 1159 2956 
Q 1366 3272 1645 3428 
Q 1925 3584 2291 3584 
Q 2894 3584 3203 3211 
Q 3513 2838 3513 2113 
z
" transform="scale(0.015625)"/>
     </defs>
     <use xlink:href="#DejaVuSans-32"/>
     <use xlink:href="#DejaVuSans-33" transform="translate(78.71875 0)"/>
     <use xlink:href="#DejaVuSans-17" transform="translate(139.015625 0)"/>
     <use xlink:href="#DejaVuSans-1b" transform="translate(202.640625 0)"/>
     <use xlink:href="#DejaVuSans-17" transform="translate(266.265625 0)"/>
     <use xlink:href="#DejaVuSans-3" transform="translate(329.890625 0)"/>
     <use xlink:href="#DejaVuSans-53" transform="translate(361.671875 0)"/>
     <use xlink:href="#DejaVuSans-52" transform="translate(425.15625 0)"/>
     <use xlink:href="#DejaVuSans-5a" transform="translate(486.34375 0)"/>
     <use xlink:href="#DejaVuSans-48" transform="translate(568.125 0)"/>
     <use xlink:href="#DejaVuSans-55" transform="translate(629.65625 0)"/>
     <use xlink:href="#DejaVuSans-3" transform="translate(670.765625 0)"/>
     <use xlink:href="#DejaVuSans-b" transform="translate(702.546875 0)"/>
     <use xlink:href="#DejaVuSans-56" transform="translate(741.5625 0)"/>
     <use xlink:href="#DejaVuSans-4b" transform="translate(793.65625 0)"/>
     <use xlink:href="#DejaVuSans-44" transform="translate(857.03125 0)"/>
     <use xlink:href="#DejaVuSans-55" transform="translate(918.3125 0)"/>
     <use xlink:href="#DejaVuSans-48" transform="translate(957.21875 0)"/>
     <use xlink:href="#DejaVuSans-47" transform="translate(1018.75 0)"/>
     <use xlink:href="#DejaVuSans-c" transform="translate(1082.234375 0)"/>
    </g>
   </g>
   <g id="text_17">
    <!-- +5 V → pin 4 -->
    <g transform="translate(438.947062 185.09125) scale(0.12 -0.12)">
     <defs>
      <path id="DejaVuSans-18" d="M 691 4666 
L 3169 4666 
L 3169 4134 
L 1269 4134 
L 1269 2991 
Q 1406 3038 1543 3061 
Q 1681 3084 1819 3084 
Q 2600 3084 3056 2656 
Q 3513 2228 3513 1497 
Q 3513 744 3044 326 
Q 2575 -91 1722 -91 
Q 1428 -91 1123 -41 
Q 819 9 494 109 
L 494 744 
Q 775 591 1075 516 
Q 1375 441 1709 441 
Q 2250 441 2565 725 
Q 2881 1009 2881 1497 
Q 2881 1984 2565 2268 
Q 2250 2553 1709 2553 
Q 1456 2553 1204 2497 
Q 953 2441 691 2322 
L 691 4666 
z
" transform="scale(0.015625)"/>
     </defs>
     <use xlink:href="#DejaVuSans-e"/>
     <use xlink:href="#DejaVuSans-18" transform="translate(83.796875 0)"/>
     <use xlink:href="#DejaVuSans-3" transform="translate(147.421875 0)"/>
     <use xlink:href="#DejaVuSans-39" transform="translate(179.203125 0)"/>
     <use xlink:href="#DejaVuSans-3" transform="translate(247.609375 0)"/>
     <use xlink:href="#DejaVuSans-c1c" transform="translate(279.390625 0)"/>
     <use xlink:href="#DejaVuSans-3" transform="translate(363.1875 0)"/>
     <use xlink:href="#DejaVuSans-53" transform="translate(394.96875 0)"/>
     <use xlink:href="#DejaVuSans-4c" transform="translate(458.453125 0)"/>
     <use xlink:href="#DejaVuSans-51" transform="translate(486.234375 0)"/>
     <use xlink:href="#DejaVuSans-3" transform="translate(549.609375 0)"/>
     <use xlink:href="#DejaVuSans-17" transform="translate(581.390625 0)"/>
    </g>
   </g>
   <g id="text_18">
    <!-- C2 -->
    <g transform="translate(457.040812 241.347812) scale(0.12 -0.12)">
     <use xlink:href="#DejaVuSans-26"/>
     <use xlink:href="#DejaVuSans-15" transform="translate(69.828125 0)"/>
    </g>
    <!-- 100 nF -->
    <g transform="translate(444.435187 253.347812) scale(0.12 -0.12)">
     <use xlink:href="#DejaVuSans-14"/>
     <use xlink:href="#DejaVuSans-13" transform="translate(63.625 0)"/>
     <use xlink:href="#DejaVuSans-13" transform="translate(127.25 0)"/>
     <use xlink:href="#DejaVuSans-3" transform="translate(190.875 0)"/>
     <use xlink:href="#DejaVuSans-51" transform="translate(222.65625 0)"/>
     <use xlink:href="#DejaVuSans-29" transform="translate(286.03125 0)"/>
    </g>
   </g>
   <g id="text_19">
    <!-- + -->
    <g transform="translate(501.662219 202.753219) scale(0.14 -0.14)">
     <use xlink:href="#DejaVuSans-e"/>
    </g>
   </g>
   <g id="text_20">
    <!-- C3 -->
    <g transform="translate(493.040812 174.147812) scale(0.12 -0.12)">
     <use xlink:href="#DejaVuSans-26"/>
     <use xlink:href="#DejaVuSans-16" transform="translate(69.828125 0)"/>
    </g>
    <!-- 10 µF -->
    <g transform="translate(484.237687 184.985312) scale(0.12 -0.12)">
     <use xlink:href="#DejaVuSans-14"/>
     <use xlink:href="#DejaVuSans-13" transform="translate(63.625 0)"/>
     <use xlink:href="#DejaVuSans-3" transform="translate(127.25 0)"/>
     <use xlink:href="#DejaVuSans-77" transform="translate(159.03125 0)"/>
     <use xlink:href="#DejaVuSans-29" transform="translate(222.65625 0)"/>
    </g>
   </g>
   <g id="text_21">
    <!-- GND → pin 11 -->
    <g transform="translate(439.848 252.29125) scale(0.12 -0.12)">
     <use xlink:href="#DejaVuSans-2a"/>
     <use xlink:href="#DejaVuSans-31" transform="translate(77.484375 0)"/>
     <use xlink:href="#DejaVuSans-27" transform="translate(152.296875 0)"/>
     <use xlink:href="#DejaVuSans-3" transform="translate(229.296875 0)"/>
     <use xlink:href="#DejaVuSans-c1c" transform="translate(261.078125 0)"/>
     <use xlink:href="#DejaVuSans-3" transform="translate(344.875 0)"/>
     <use xlink:href="#DejaVuSans-53" transform="translate(376.65625 0)"/>
     <use xlink:href="#DejaVuSans-4c" transform="translate(440.140625 0)"/>
     <use xlink:href="#DejaVuSans-51" transform="translate(467.921875 0)"/>
     <use xlink:href="#DejaVuSans-3" transform="translate(531.296875 0)"/>
     <use xlink:href="#DejaVuSans-14" transform="translate(563.078125 0)"/>
     <use xlink:href="#DejaVuSans-14" transform="translate(626.703125 0)"/>
    </g>
   </g>
   <g id="text_22">
    <!-- Av = 1 + Rf/Rg = 1 + 62.0k/10.19k ≈ 7.08 -->
    <g transform="translate(79.848 288.015312) scale(0.11 -0.11)">
     <defs>
      <path id="DejaVuSans-20" d="M 678 2906 
L 4684 2906 
L 4684 2381 
L 678 2381 
L 678 2906 
z
M 678 1631 
L 4684 1631 
L 4684 1100 
L 678 1100 
L 678 1631 
z
" transform="scale(0.015625)"/>
      <path id="DejaVuSans-12" d="M 1625 4666 
L 2156 4666 
L 531 -594 
L 0 -594 
L 1625 4666 
z
" transform="scale(0.015625)"/>
      <path id="DejaVuSans-1a" d="M 525 4666 
L 3525 4666 
L 3525 4397 
L 1831 0 
L 1172 0 
L 2766 4134 
L 525 4134 
L 525 4666 
z
" transform="scale(0.015625)"/>
     </defs>
     <use xlink:href="#DejaVuSans-24"/>
     <use xlink:href="#DejaVuSans-59" transform="translate(62.546875 0)"/>
     <use xlink:href="#DejaVuSans-3" transform="translate(121.734375 0)"/>
     <use xlink:href="#DejaVuSans-20" transform="translate(153.515625 0)"/>
     <use xlink:href="#DejaVuSans-3" transform="translate(237.3125 0)"/>
     <use xlink:href="#DejaVuSans-14" transform="translate(269.09375 0)"/>
     <use xlink:href="#DejaVuSans-3" transform="translate(332.71875 0)"/>
     <use xlink:href="#DejaVuSans-e" transform="translate(364.5 0)"/>
     <use xlink:href="#DejaVuSans-3" transform="translate(448.296875 0)"/>
     <use xlink:href="#DejaVuSans-35" transform="translate(480.078125 0)"/>
     <use xlink:href="#DejaVuSans-49" transform="translate(549.5625 0)"/>
     <use xlink:href="#DejaVuSans-12" transform="translate(584.765625 0)"/>
     <use xlink:href="#DejaVuSans-35" transform="translate(618.453125 0)"/>
     <use xlink:href="#DejaVuSans-4a" transform="translate(687.9375 0)"/>
     <use xlink:href="#DejaVuSans-3" transform="translate(751.421875 0)"/>
     <use xlink:href="#DejaVuSans-20" transform="translate(783.203125 0)"/>
     <use xlink:href="#DejaVuSans-3" transform="translate(867 0)"/>
     <use xlink:href="#DejaVuSans-14" transform="translate(898.78125 0)"/>
     <use xlink:href="#DejaVuSans-3" transform="translate(962.40625 0)"/>
     <use xlink:href="#DejaVuSans-e" transform="translate(994.1875 0)"/>
     <use xlink:href="#DejaVuSans-3" transform="translate(1077.984375 0)"/>
     <use xlink:href="#DejaVuSans-19" transform="translate(1109.765625 0)"/>
     <use xlink:href="#DejaVuSans-15" transform="translate(1173.390625 0)"/>
     <use xlink:href="#DejaVuSans-11" transform="translate(1237.015625 0)"/>
     <use xlink:href="#DejaVuSans-13" transform="translate(1268.796875 0)"/>
     <use xlink:href="#DejaVuSans-4e" transform="translate(1332.421875 0)"/>
     <use xlink:href="#DejaVuSans-12" transform="translate(1390.328125 0)"/>
     <use xlink:href="#DejaVuSans-14" transform="translate(1424.015625 0)"/>
     <use xlink:href="#DejaVuSans-13" transform="translate(1487.640625 0)"/>
     <use xlink:href="#DejaVuSans-11" transform="translate(1551.265625 0)"/>
     <use xlink:href="#DejaVuSans-14" transform="translate(1583.046875 0)"/>
     <use xlink:href="#DejaVuSans-1c" transform="translate(1646.671875 0)"/>
     <use xlink:href="#DejaVuSans-4e" transform="translate(1710.296875 0)"/>
     <use xlink:href="#DejaVuSans-3" transform="translate(1768.203125 0)"/>
     <use xlink:href="#DejaVuSans-cd2" transform="translate(1799.984375 0)"/>
     <use xlink:href="#DejaVuSans-3" transform="translate(1883.78125 0)"/>
     <use xlink:href="#DejaVuSans-1a" transform="translate(1915.5625 0)"/>
     <use xlink:href="#DejaVuSans-11" transform="translate(1979.1875 0)"/>
     <use xlink:href="#DejaVuSans-13" transform="translate(2010.96875 0)"/>
     <use xlink:href="#DejaVuSans-1b" transform="translate(2074.59375 0)"/>
    </g>
   </g>
   <g id="text_23">
    <!-- VOUT = VREF + Av(VIN − VREF) -->
    <g transform="translate(79.848 306.427812) scale(0.11 -0.11)">
     <use xlink:href="#DejaVuSans-39"/>
     <use xlink:href="#DejaVuSans-32" transform="translate(66.65625 0)"/>
     <use xlink:href="#DejaVuSans-38" transform="translate(145.375 0)"/>
     <use xlink:href="#DejaVuSans-37" transform="translate(218.5625 0)"/>
     <use xlink:href="#DejaVuSans-3" transform="translate(279.640625 0)"/>
     <use xlink:href="#DejaVuSans-20" transform="translate(311.421875 0)"/>
     <use xlink:href="#DejaVuSans-3" transform="translate(395.21875 0)"/>
     <use xlink:href="#DejaVuSans-39" transform="translate(427 0)"/>
     <use xlink:href="#DejaVuSans-35" transform="translate(495.40625 0)"/>
     <use xlink:href="#DejaVuSans-28" transform="translate(564.890625 0)"/>
     <use xlink:href="#DejaVuSans-29" transform="translate(628.078125 0)"/>
     <use xlink:href="#DejaVuSans-3" transform="translate(685.59375 0)"/>
     <use xlink:href="#DejaVuSans-e" transform="translate(717.375 0)"/>
     <use xlink:href="#DejaVuSans-3" transform="translate(801.171875 0)"/>
     <use xlink:href="#DejaVuSans-24" transform="translate(832.953125 0)"/>
     <use xlink:href="#DejaVuSans-59" transform="translate(895.5 0)"/>
     <use xlink:href="#DejaVuSans-b" transform="translate(954.6875 0)"/>
     <use xlink:href="#DejaVuSans-39" transform="translate(993.703125 0)"/>
     <use xlink:href="#DejaVuSans-2c" transform="translate(1062.109375 0)"/>
     <use xlink:href="#DejaVuSans-31" transform="translate(1091.609375 0)"/>
     <use xlink:href="#DejaVuSans-3" transform="translate(1166.421875 0)"/>
     <use xlink:href="#DejaVuSans-c9c" transform="translate(1198.203125 0)"/>
     <use xlink:href="#DejaVuSans-3" transform="translate(1282 0)"/>
     <use xlink:href="#DejaVuSans-39" transform="translate(1313.78125 0)"/>
     <use xlink:href="#DejaVuSans-35" transform="translate(1382.1875 0)"/>
     <use xlink:href="#DejaVuSans-28" transform="translate(1451.671875 0)"/>
     <use xlink:href="#DejaVuSans-29" transform="translate(1514.859375 0)"/>
     <use xlink:href="#DejaVuSans-c" transform="translate(1572.375 0)"/>
    </g>
   </g>
   <g id="text_24">
    <!-- Important: Rbias and Rg connect to buffered VREF — not GND. -->
    <g style="fill: #b2182b" transform="translate(310.248 297.015312) scale(0.11 -0.11)">
     <defs>
      <path id="DejaVuSans-1d" d="M 750 794 
L 1409 794 
L 1409 0 
L 750 0 
L 750 794 
z
M 750 3309 
L 1409 3309 
L 1409 2516 
L 750 2516 
L 750 3309 
z
" transform="scale(0.015625)"/>
     </defs>
     <use xlink:href="#DejaVuSans-2c"/>
     <use xlink:href="#DejaVuSans-50" transform="translate(29.5 0)"/>
     <use xlink:href="#DejaVuSans-53" transform="translate(126.90625 0)"/>
     <use xlink:href="#DejaVuSans-52" transform="translate(190.390625 0)"/>
     <use xlink:href="#DejaVuSans-55" transform="translate(251.578125 0)"/>
     <use xlink:href="#DejaVuSans-57" transform="translate(292.6875 0)"/>
     <use xlink:href="#DejaVuSans-44" transform="translate(331.890625 0)"/>
     <use xlink:href="#DejaVuSans-51" transform="translate(393.171875 0)"/>
     <use xlink:href="#DejaVuSans-57" transform="translate(456.546875 0)"/>
     <use xlink:href="#DejaVuSans-1d" transform="translate(495.75 0)"/>
     <use xlink:href="#DejaVuSans-3" transform="translate(529.4375 0)"/>
     <use xlink:href="#DejaVuSans-35" transform="translate(561.21875 0)"/>
     <use xlink:href="#DejaVuSans-45" transform="translate(630.703125 0)"/>
     <use xlink:href="#DejaVuSans-4c" transform="translate(694.1875 0)"/>
     <use xlink:href="#DejaVuSans-44" transform="translate(721.96875 0)"/>
     <use xlink:href="#DejaVuSans-56" transform="translate(783.25 0)"/>
     <use xlink:href="#DejaVuSans-3" transform="translate(835.34375 0)"/>
     <use xlink:href="#DejaVuSans-44" transform="translate(867.125 0)"/>
     <use xlink:href="#DejaVuSans-51" transform="translate(928.40625 0)"/>
     <use xlink:href="#DejaVuSans-47" transform="translate(991.78125 0)"/>
     <use xlink:href="#DejaVuSans-3" transform="translate(1055.265625 0)"/>
     <use xlink:href="#DejaVuSans-35" transform="translate(1087.046875 0)"/>
     <use xlink:href="#DejaVuSans-4a" transform="translate(1156.53125 0)"/>
     <use xlink:href="#DejaVuSans-3" transform="translate(1220.015625 0)"/>
     <use xlink:href="#DejaVuSans-46" transform="translate(1251.796875 0)"/>
     <use xlink:href="#DejaVuSans-52" transform="translate(1306.78125 0)"/>
     <use xlink:href="#DejaVuSans-51" transform="translate(1367.96875 0)"/>
     <use xlink:href="#DejaVuSans-51" transform="translate(1431.34375 0)"/>
     <use xlink:href="#DejaVuSans-48" transform="translate(1494.71875 0)"/>
     <use xlink:href="#DejaVuSans-46" transform="translate(1556.25 0)"/>
     <use xlink:href="#DejaVuSans-57" transform="translate(1611.234375 0)"/>
     <use xlink:href="#DejaVuSans-3" transform="translate(1650.4375 0)"/>
     <use xlink:href="#DejaVuSans-57" transform="translate(1682.21875 0)"/>
     <use xlink:href="#DejaVuSans-52" transform="translate(1721.421875 0)"/>
     <use xlink:href="#DejaVuSans-3" transform="translate(1782.609375 0)"/>
     <use xlink:href="#DejaVuSans-45" transform="translate(1814.390625 0)"/>
     <use xlink:href="#DejaVuSans-58" transform="translate(1877.875 0)"/>
     <use xlink:href="#DejaVuSans-13ae" transform="translate(1941.25 0)"/>
     <use xlink:href="#DejaVuSans-48" transform="translate(2010.140625 0)"/>
     <use xlink:href="#DejaVuSans-55" transform="translate(2071.671875 0)"/>
     <use xlink:href="#DejaVuSans-48" transform="translate(2110.578125 0)"/>
     <use xlink:href="#DejaVuSans-47" transform="translate(2172.109375 0)"/>
     <use xlink:href="#DejaVuSans-3" transform="translate(2235.59375 0)"/>
     <use xlink:href="#DejaVuSans-39" transform="translate(2267.375 0)"/>
     <use xlink:href="#DejaVuSans-35" transform="translate(2335.78125 0)"/>
     <use xlink:href="#DejaVuSans-28" transform="translate(2405.265625 0)"/>
     <use xlink:href="#DejaVuSans-29" transform="translate(2468.453125 0)"/>
     <use xlink:href="#DejaVuSans-3" transform="translate(2525.96875 0)"/>
     <use xlink:href="#DejaVuSans-af6" transform="translate(2557.75 0)"/>
     <use xlink:href="#DejaVuSans-3" transform="translate(2657.75 0)"/>
     <use xlink:href="#DejaVuSans-51" transform="translate(2689.53125 0)"/>
     <use xlink:href="#DejaVuSans-52" transform="translate(2752.90625 0)"/>
     <use xlink:href="#DejaVuSans-57" transform="translate(2814.09375 0)"/>
     <use xlink:href="#DejaVuSans-3" transform="translate(2853.296875 0)"/>
     <use xlink:href="#DejaVuSans-2a" transform="translate(2885.078125 0)"/>
     <use xlink:href="#DejaVuSans-31" transform="translate(2962.5625 0)"/>
     <use xlink:href="#DejaVuSans-27" transform="translate(3037.375 0)"/>
     <use xlink:href="#DejaVuSans-11" transform="translate(3114.375 0)"/>
    </g>
   </g>
   <g id="patch_3">
    <path d="M 220.248 98.68 
C 220.964048 98.68 221.650866 98.395511 222.157188 97.889188 
C 222.663511 97.382866 222.948 96.696048 222.948 95.98 
C 222.948 95.263952 222.663511 94.577134 222.157188 94.070812 
C 221.650866 93.564489 220.964048 93.28 220.248 93.28 
C 219.531952 93.28 218.845134 93.564489 218.338812 94.070812 
C 217.832489 94.577134 217.548 95.263952 217.548 95.98 
C 217.548 96.696048 217.832489 97.382866 218.338812 97.889188 
C 218.845134 98.395511 219.531952 98.68 220.248 98.68 
z
" clip-path="url(#p5c4821da04)" style="stroke: #000000; stroke-width: 1.8; stroke-linejoin: miter"/>
   </g>
   <g id="text_25">
    <!-- TP1 -->
    <g transform="translate(209.148 88.054375) scale(0.12 -0.12)">
     <use xlink:href="#DejaVuSans-37"/>
     <use xlink:href="#DejaVuSans-33" transform="translate(61.078125 0)"/>
     <use xlink:href="#DejaVuSans-14" transform="translate(121.375 0)"/>
    </g>
   </g>
   <g id="patch_4">
    <path d="M 467.390286 131.08 
C 468.106335 131.08 468.793152 130.795511 469.299475 130.289188 
C 469.805797 129.782866 470.090286 129.096048 470.090286 128.38 
C 470.090286 127.663952 469.805797 126.977134 469.299475 126.470812 
C 468.793152 125.964489 468.106335 125.68 467.390286 125.68 
C 466.674238 125.68 465.987421 125.964489 465.481098 126.470812 
C 464.974775 126.977134 464.690286 127.663952 464.690286 128.38 
C 464.690286 129.096048 464.974775 129.782866 465.481098 130.289188 
C 465.987421 130.795511 466.674238 131.08 467.390286 131.08 
z
" clip-path="url(#p5c4821da04)" style="stroke: #000000; stroke-width: 1.8; stroke-linejoin: miter"/>
   </g>
   <g id="text_26">
    <!-- TP2 -->
    <g transform="translate(456.290286 120.533125) scale(0.12 -0.12)">
     <use xlink:href="#DejaVuSans-37"/>
     <use xlink:href="#DejaVuSans-33" transform="translate(61.078125 0)"/>
     <use xlink:href="#DejaVuSans-15" transform="translate(121.375 0)"/>
    </g>
   </g>
   <g id="patch_5">
    <path d="M 328.248 108.58 
C 328.964048 108.58 329.650866 108.295511 330.157188 107.789188 
C 330.663511 107.282866 330.948 106.596048 330.948 105.88 
C 330.948 105.163952 330.663511 104.477134 330.157188 103.970812 
C 329.650866 103.464489 328.964048 103.18 328.248 103.18 
C 327.531952 103.18 326.845134 103.464489 326.338812 103.970812 
C 325.832489 104.477134 325.548 105.163952 325.548 105.88 
C 325.548 106.596048 325.832489 107.282866 326.338812 107.789188 
C 326.845134 108.295511 327.531952 108.58 328.248 108.58 
z
" clip-path="url(#p5c4821da04)" style="stroke: #000000; stroke-width: 1.8; stroke-linejoin: miter"/>
   </g>
   <g id="patch_6">
    <path d="M 342.648 253.48 
C 343.364048 253.48 344.050866 253.195511 344.557188 252.689188 
C 345.063511 252.182866 345.348 251.496048 345.348 250.78 
C 345.348 250.063952 345.063511 249.377134 344.557188 248.870812 
C 344.050866 248.364489 343.364048 248.08 342.648 248.08 
C 341.931952 248.08 341.245134 248.364489 340.738812 248.870812 
C 340.232489 249.377134 339.948 250.063952 339.948 250.78 
C 339.948 251.496048 340.232489 252.182866 340.738812 252.689188 
C 341.245134 253.195511 341.931952 253.48 342.648 253.48 
z
" clip-path="url(#p5c4821da04)" style="stroke: #000000; stroke-width: 1.8; stroke-linejoin: miter"/>
   </g>
   <g id="text_27">
    <!-- TP3 -->
    <g style="fill: #2166ac" transform="translate(331.548 267.447812) scale(0.12 -0.12)">
     <use xlink:href="#DejaVuSans-37"/>
     <use xlink:href="#DejaVuSans-33" transform="translate(61.078125 0)"/>
     <use xlink:href="#DejaVuSans-16" transform="translate(121.375 0)"/>
    </g>
   </g>
   <g id="patch_7">
    <path d="M 220.248 253.48 
C 220.964048 253.48 221.650866 253.195511 222.157188 252.689188 
C 222.663511 252.182866 222.948 251.496048 222.948 250.78 
C 222.948 250.063952 222.663511 249.377134 222.157188 248.870812 
C 221.650866 248.364489 220.964048 248.08 220.248 248.08 
C 219.531952 248.08 218.845134 248.364489 218.338812 248.870812 
C 217.832489 249.377134 217.548 250.063952 217.548 250.78 
C 217.548 251.496048 217.832489 252.182866 218.338812 252.689188 
C 218.845134 253.195511 219.531952 253.48 220.248 253.48 
z
" clip-path="url(#p5c4821da04)" style="stroke: #000000; stroke-width: 1.8; stroke-linejoin: miter"/>
   </g>
   <g id="patch_8">
    <path d="M 328.248 253.48 
C 328.964048 253.48 329.650866 253.195511 330.157188 252.689188 
C 330.663511 252.182866 330.948 251.496048 330.948 250.78 
C 330.948 250.063952 330.663511 249.377134 330.157188 248.870812 
C 329.650866 248.364489 328.964048 248.08 328.248 248.08 
C 327.531952 248.08 326.845134 248.364489 326.338812 248.870812 
C 325.832489 249.377134 325.548 250.063952 325.548 250.78 
C 325.548 251.496048 325.832489 252.182866 326.338812 252.689188 
C 326.845134 253.195511 327.531952 253.48 328.248 253.48 
z
" clip-path="url(#p5c4821da04)" style="stroke: #000000; stroke-width: 1.8; stroke-linejoin: miter"/>
   </g>
   <g id="patch_9">
    <path d="M 465.048 194.08 
C 465.764048 194.08 466.450866 193.795511 466.957188 193.289188 
C 467.463511 192.782866 467.748 192.096048 467.748 191.38 
C 467.748 190.663952 467.463511 189.977134 466.957188 189.470812 
C 466.450866 188.964489 465.764048 188.68 465.048 188.68 
C 464.331952 188.68 463.645134 188.964489 463.138812 189.470812 
C 462.632489 189.977134 462.348 190.663952 462.348 191.38 
C 462.348 192.096048 462.632489 192.782866 463.138812 193.289188 
C 463.645134 193.795511 464.331952 194.08 465.048 194.08 
z
" clip-path="url(#p5c4821da04)" style="stroke: #000000; stroke-width: 1.8; stroke-linejoin: miter"/>
   </g>
   <g id="patch_10">
    <path d="M 501.048 194.08 
C 501.764048 194.08 502.450866 193.795511 502.957188 193.289188 
C 503.463511 192.782866 503.748 192.096048 503.748 191.38 
C 503.748 190.663952 503.463511 189.977134 502.957188 189.470812 
C 502.450866 188.964489 501.764048 188.68 501.048 188.68 
C 500.331952 188.68 499.645134 188.964489 499.138812 189.470812 
C 498.632489 189.977134 498.348 190.663952 498.348 191.38 
C 498.348 192.096048 498.632489 192.782866 499.138812 193.289188 
C 499.645134 193.795511 500.331952 194.08 501.048 194.08 
z
" clip-path="url(#p5c4821da04)" style="stroke: #000000; stroke-width: 1.8; stroke-linejoin: miter"/>
   </g>
  </g>
 </g>
 <defs>
  <clipPath id="p5c4821da04">
   <rect x="0" y="0" width="618.924" height="313.16"/>
  </clipPath>
 </defs>
</svg>
